<?xml version="1.0" standalone="no"?>
<!DOCTYPE svg PUBLIC "-//W3C//DTD SVG 1.1//EN" "http://www.w3.org/Graphics/SVG/1.1/DTD/svg11.dtd" >
<svg>
<metadata>
Created by FontForge 20120731 at Thu Jun 14 17:49:00 2018
 By www
Copyright (c) 2011 by Jonathan Hill. All rights reserved.
</metadata>
<defs>
<font id="NuromW00-Bold" horiz-adv-x="700" >
  <font-face 
    font-family="NuromW00-Bold"
    font-weight="700"
    font-stretch="normal"
    units-per-em="1000"
    panose-1="2 0 8 0 0 0 0 0 0 0"
    ascent="800"
    descent="-200"
    x-height="500"
    cap-height="698"
    bbox="0 -218 1362 951"
    underline-thickness="50"
    underline-position="-125"
    unicode-range="U+0020-FB02"
  />
<missing-glyph horiz-adv-x="250" 
 />
    <glyph glyph-name=".notdef" horiz-adv-x="250" 
 />
    <glyph glyph-name=".null" horiz-adv-x="0" 
 />
    <glyph glyph-name="nonmarkingreturn" horiz-adv-x="333" 
 />
    <glyph glyph-name="space" unicode=" " horiz-adv-x="300" 
 />
    <glyph glyph-name="exclam" unicode="!" horiz-adv-x="231" 
d="M196 699l-12 -488h-136l-12 488h160zM205 147v-145h-179v145h179z" />
    <glyph glyph-name="quotedbl" unicode="&#x22;" horiz-adv-x="428" 
d="M187 762l-13 -273h-135l-13 273h161zM402 762l-13 -273h-135l-13 273h161z" />
    <glyph glyph-name="numbersign" unicode="#" 
d="M584 748l-50 -236h118v-105h-140l-17 -81h157v-105h-179l-46 -218h-111l46 218h-85l-46 -218h-111l46 218h-117v105h140l17 81h-157v105h179l50 236h111l-50 -236h85l50 236h110zM400 407h-85l-17 -81h85z" />
    <glyph glyph-name="dollar" unicode="$" horiz-adv-x="698" 
d="M424 787v-84q42 -7 80 -21.5t68.5 -33.5t52 -42.5t31.5 -48.5l-142 -25q-23 27 -44.5 43t-42 24t-40 10.5t-37.5 2.5q-70 0 -107.5 -25t-35.5 -79q1 -19 10 -32t22 -21t27.5 -12t25.5 -6l159 -29q12 -2 32.5 -7t44.5 -14t48.5 -23t45 -35t33 -50t12.5 -67
q0 -56 -21.5 -95t-56 -65t-78 -40t-87.5 -18v-80h-147v83q-38 5 -76.5 16.5t-73 32.5t-61.5 53t-42 78l143 26q19 -38 42.5 -61t49.5 -35t54.5 -15.5t57.5 -3.5q75 0 109.5 31.5t34.5 88.5q0 25 -9.5 41.5t-23 26.5t-29 15t-26.5 7l-151 29q-13 2 -34 6t-45 12t-49 20.5
t-45 31.5t-32.5 45.5t-12.5 63.5q0 43 18 76.5t48 58t70 39.5t84 22v84z" />
    <glyph glyph-name="percent" unicode="%" horiz-adv-x="960" 
d="M806 716l-543 -732h-116l543 732h116zM220 697q44 0 79.5 -15t60 -40.5t38 -60t13.5 -73.5t-13.5 -73.5t-38 -60t-60 -40.5t-79.5 -15t-79.5 15t-60 40.5t-38 60t-13.5 73.5t13.5 73.5t38 60t60 40.5t79.5 15zM220 630q-41 0 -68 -32.5t-27 -89.5t27 -89t68 -32
q40 0 67.5 32t27.5 89t-27.5 89.5t-67.5 32.5zM741 382q44 0 79.5 -15t60 -40.5t38 -60t13.5 -73.5t-13.5 -73.5t-38 -60t-60 -40.5t-79.5 -15t-79.5 15t-60 40.5t-38 60t-13.5 73.5t13.5 73.5t38 60t60 40.5t79.5 15zM741 315q-40 0 -67.5 -32.5t-27.5 -89.5t27.5 -89
t67.5 -32t67.5 32t27.5 89t-27.5 89.5t-67.5 32.5z" />
    <glyph glyph-name="ampersand" unicode="&#x26;" horiz-adv-x="648" 
d="M436 23q-35 -23 -77.5 -35.5t-87.5 -12.5q-58 0 -103.5 17.5t-76.5 48t-47.5 72t-16.5 90.5q0 42 16.5 77t41.5 64t54.5 51.5t54.5 38.5q-23 42 -33 76.5t-10 70.5q0 31 12.5 58.5t35 48.5t54 33.5t68.5 12.5q41 0 72.5 -12t52.5 -33t30.5 -49t8.5 -59q-2 -32 -14 -58
t-38 -52q-13 -12 -32 -26.5t-51 -34.5l106 -177q9 13 19 28t20 34l125 -22q-2 -4 -12.5 -28.5t-28.5 -56.5q-9 -19 -21.5 -39t-27.5 -41l74 -125h-145zM323 639q-17 0 -28 -14.5t-11 -43.5q0 -24 6 -44t17 -40q47 41 50 85q2 32 -9 44.5t-27 12.5h2zM247 341
q-13 -11 -26 -24.5t-24 -31t-18 -38t-7 -44.5q0 -66 31 -96.5t79 -30.5q28 0 51 8.5t49 32.5z" />
    <glyph glyph-name="quotesingle" unicode="'" horiz-adv-x="213" 
d="M187 762l-13 -273h-135l-13 273h161z" />
    <glyph glyph-name="parenleft" unicode="(" horiz-adv-x="405" 
d="M247 -157q-107 75 -167 186.5t-60 245.5t60 245.5t167 186.5l134 -23q-42 -21 -80.5 -62.5t-68 -97t-47 -119.5t-17.5 -130t17.5 -130.5t47 -119.5t68 -97t80.5 -63z" />
    <glyph glyph-name="parenright" unicode=")" horiz-adv-x="405" 
d="M158 707q107 -75 167 -186.5t60 -245.5t-60 -245.5t-167 -186.5l-134 22q42 21 80.5 63t68 97t47 119.5t17.5 130.5t-17.5 130t-47 119.5t-68 97t-80.5 62.5z" />
    <glyph glyph-name="asterisk" unicode="*" horiz-adv-x="600" 
d="M370 702l-8 -170l165 63l35 -107l-178 -48l113 -141l-107 -78l-92 140l-92 -140l-107 78l113 140l-178 48l35 107l164 -62l-8 170h145z" />
    <glyph glyph-name="plus" unicode="+" horiz-adv-x="674" 
d="M408 579v-237h237v-105h-237v-238h-142v238h-237v105h237v237h142z" />
    <glyph glyph-name="comma" unicode="," horiz-adv-x="231" 
d="M205 148v-149q0 -41 -14.5 -69.5t-41.5 -58.5l-124 22q23 21 37.5 39.5t14.5 47.5v20h-51v148h179z" />
    <glyph glyph-name="hyphen" unicode="-" horiz-adv-x="530" 
d="M506 342v-105h-481v105h481z" />
    <glyph glyph-name="period" unicode="." horiz-adv-x="231" 
d="M205 149v-148h-179v148h179z" />
    <glyph glyph-name="slash" unicode="/" horiz-adv-x="489" 
d="M457 699l-311 -698h-114l311 698h114z" />
    <glyph glyph-name="zero" unicode="0" horiz-adv-x="682" 
d="M341 682q80 0 137.5 -29t94 -77t54 -110t17.5 -129q0 -66 -17.5 -128.5t-54 -110.5t-94 -77.5t-137.5 -29.5t-137.5 29.5t-94.5 77.5t-54 110.5t-17 128.5q0 67 17 129t54 110t94.5 77t137.5 29zM339 581q-37 0 -66 -18t-49 -50t-30.5 -77t-10.5 -99q0 -53 10.5 -98
t31 -77.5t49.5 -51t66 -18.5t66 18.5t49 51t31 77.5t11 98q0 54 -10.5 99t-30.5 77t-49 50t-66 18h-2z" />
    <glyph glyph-name="one" unicode="1" horiz-adv-x="353" 
d="M284 668v-669h-147v501q-27 -11 -54 -14t-51 -3h-23v79q24 4 46.5 10.5t40 18t29 30.5t14.5 48z" />
    <glyph glyph-name="two" unicode="2" horiz-adv-x="613" 
d="M49 459q-1 48 18 88.5t54.5 70t85 45.5t110.5 16t109 -17t80.5 -46t49 -69.5t14.5 -86.5q-2 -47 -21 -83t-52.5 -68t-79.5 -62.5t-101 -65.5q-30 -19 -54.5 -38t-40.5 -39h357v-104h-541q0 25 5 53.5t26.5 62.5t65 73t120.5 85q48 28 79.5 51t50.5 44t27.5 41.5
t10.5 44.5q5 58 -21.5 92t-83.5 34q-121 0 -121 -123v-12t1 -12z" />
    <glyph glyph-name="three" unicode="3" horiz-adv-x="629" 
d="M63 504q-1 36 16 68.5t49.5 58t77.5 40.5t101 15q54 0 101.5 -15t83 -40t55.5 -58t20 -69q0 -46 -23.5 -80.5t-67.5 -57.5q116 -53 116 -166q0 -42 -20 -79.5t-56.5 -66.5t-89.5 -46t-119 -17q-67 0 -117.5 17.5t-85 47t-51.5 67t-16 78.5l148 26v-22q0 -59 27 -86
t95 -27q138 0 138 107q0 57 -33 85.5t-105 28.5h-91v94h91q54 0 83.5 24t29.5 72q0 40 -30 62.5t-82 22.5q-97 0 -97 -89v-11t1 -12z" />
    <glyph glyph-name="four" unicode="4" horiz-adv-x="687" 
d="M360 669h149v-382h139v-101h-139v-186h-147v186h-352v84zM362 478l-169 -191h169v191z" />
    <glyph glyph-name="five" unicode="5" horiz-adv-x="626" 
d="M567 669v-100h-319l-22 -118q23 14 51 21.5t59 7.5q58 0 105 -17t80.5 -48.5t51.5 -75.5t18 -98t-21.5 -99t-58 -77.5t-85 -51.5t-103.5 -21q-50 -2 -99.5 7t-90 35t-66.5 72t-29 118l147 26q-1 -53 7.5 -84.5t25.5 -48.5t42.5 -22t58.5 -4q23 1 45 10.5t39.5 28.5
t28.5 46.5t11 63.5q0 75 -29.5 108t-78.5 33q-23 0 -41.5 -2t-34 -10t-29.5 -23.5t-27 -42.5l-138 24l63 342h439z" />
    <glyph glyph-name="six" unicode="6" horiz-adv-x="630" 
d="M182 386q23 29 65 46.5t92 17.5q55 0 101.5 -17t80 -47.5t52.5 -72t19 -89.5q0 -46 -19 -88t-54.5 -74t-85 -51t-109.5 -19q-135 0 -211.5 85t-76.5 260q0 74 19 137t55 109t87 72.5t115 28.5q39 1 79 -5.5t75.5 -25t63.5 -51.5t43 -85l-143 -26q-7 31 -17 50t-23.5 28.5
t-32 12t-41.5 1.5q-53 -2 -87 -46.5t-43 -129.5zM338 351q-63 0 -102 -34.5t-39 -94.5t33.5 -97.5t102.5 -34.5q48 2 79.5 37.5t31.5 95.5q0 63 -30.5 96.5t-75.5 33.5v-2z" />
    <glyph glyph-name="seven" unicode="7" horiz-adv-x="602" 
d="M595 668v-83q-125 -133 -214.5 -284.5t-141.5 -301.5h-173q26 65 62 136t81.5 144t99 146.5t115.5 143.5h-387v100z" />
    <glyph glyph-name="eight" unicode="8" horiz-adv-x="646" 
d="M323 686q54 0 101.5 -15t83 -40t55.5 -58t20 -69q0 -46 -23.5 -80.5t-67.5 -57.5q116 -53 116 -166q0 -42 -20 -79.5t-56.5 -66.5t-89.5 -46t-119 -17t-119 17t-89.5 46t-56.5 66.5t-20 79.5q0 113 116 166q-44 24 -67.5 58.5t-23.5 80.5q0 36 20 69t55.5 58t83 40
t101.5 15v-1zM321 588q-52 0 -82 -22.5t-30 -62.5q0 -48 29.5 -72t83.5 -24t83.5 24t29.5 72q0 40 -30 62.5t-82 22.5h-2zM321 313q-72 0 -105 -28.5t-33 -85.5q0 -107 138 -107t138 107q0 57 -33 85.5t-105 28.5z" />
    <glyph glyph-name="nine" unicode="9" horiz-adv-x="630" 
d="M447 289q-23 -29 -65 -46.5t-92 -17.5q-55 0 -101.5 17t-80 47.5t-52.5 72t-19 89.5q0 46 19 88t54.5 74t85 51t109.5 19q135 0 211.5 -85.5t76.5 -260.5q0 -74 -19 -137t-55 -109t-87 -72.5t-115 -27.5q-39 -1 -79 5.5t-75.5 25t-63.5 51.5t-43 85l143 26
q7 -32 17 -50.5t23.5 -28t32 -12t41.5 -1.5q51 2 84.5 44.5t43.5 121.5zM296 586q-48 -2 -79.5 -37.5t-31.5 -95.5q0 -63 30.5 -96.5t75.5 -33.5q63 0 102 34.5t39 94.5t-33.5 97.5t-102.5 34.5v2z" />
    <glyph glyph-name="colon" unicode=":" horiz-adv-x="231" 
d="M205 505v-148h-179v148h179zM205 148v-148h-179v148h179z" />
    <glyph glyph-name="semicolon" unicode=";" horiz-adv-x="234" 
d="M209 501v-148h-179v148h179zM208 148v-149q0 -41 -14.5 -69.5t-41.5 -58.5l-124 22q23 21 37.5 39.5t14.5 47.5v20h-51v148h179z" />
    <glyph glyph-name="less" unicode="&#x3c;" horiz-adv-x="637" 
d="M609 499v-134l-393 -132l393 -132v-134l-581 210v113z" />
    <glyph glyph-name="equal" unicode="=" horiz-adv-x="711" 
d="M683 444v-113h-655v113h655zM683 252v-113h-655v113h655z" />
    <glyph glyph-name="greater" unicode="&#x3e;" horiz-adv-x="637" 
d="M28 500l581 -209v-113l-581 -210v134l393 132l-393 132v134z" />
    <glyph glyph-name="question" unicode="?" horiz-adv-x="435" 
d="M21 578q2 24 18 47.5t43 43t63.5 31.5t80.5 12q48 0 83.5 -12t58.5 -32t34.5 -46t11.5 -54q0 -35 -13 -62t-34 -51t-48 -47.5t-55 -50.5q-22 -21 -26.5 -55.5t-4.5 -72.5v-18h-142v36q0 19 2 40.5t9 44t20.5 45.5t37.5 45q30 28 51.5 48t34.5 36t19 30t6 31t-10.5 33
t-38.5 16q-26 0 -47 -12.5t-30 -47.5zM251 147v-145h-179v145h179z" />
    <glyph glyph-name="at" unicode="@" horiz-adv-x="827" 
d="M668 -81q-44 -42 -110 -68t-142 -26q-81 0 -149.5 28.5t-118 77t-77.5 114.5t-28 141q0 76 28 142t78 114.5t118 76t149 27.5t149 -27.5t117.5 -76t77 -114.5t27.5 -142q0 -102 -53 -190h-244l-5 41q-15 -20 -46.5 -35t-77.5 -15q-28 0 -49.5 6t-37 15.5t-25.5 21.5
t-16 23q-5 9 -8 22t-3 28q0 24 13 50t48 46q10 6 21 10.5t32 9.5t55 11t90 14v27q0 36 -17 49t-55 13t-55 -13t-17 -51v-12l-97 18q0 31 14 54.5t37.5 39t53.5 23t63 7.5t63.5 -8t54 -24t37 -40t13.5 -56v-210h87q12 26 19 57.5t7 66.5q0 62 -21 114t-57.5 89.5t-87 58.5
t-109.5 21t-109.5 -21t-87.5 -58.5t-58 -89.5t-21 -114q0 -61 21 -113t58 -90t87.5 -59.5t109.5 -21.5q38 0 71.5 9t66.5 28zM481 179q-42 -7 -66.5 -11t-39 -7t-22 -6.5t-14.5 -7.5q-11 -7 -15 -17.5t-4 -21.5q0 -17 7 -29q8 -14 21 -21.5t28 -6.5q37 2 67.5 27t38.5 70z
" />
    <glyph glyph-name="A" unicode="A" horiz-adv-x="705" 
d="M437 699l251 -698h-155l-64 185h-230l-64 -185h-155l251 698h166zM355 516l-79 -227h158z" />
    <glyph glyph-name="B" unicode="B" horiz-adv-x="716" 
d="M387 700q57 0 104 -9.5t81.5 -29.5t54.5 -52.5t23 -77.5q3 -33 -4.5 -58t-20.5 -43t-28.5 -30.5t-28.5 -20.5q12 -6 32.5 -17t39.5 -30.5t33 -49.5t14 -75q0 -62 -25 -101.5t-62 -62.5t-78 -32.5t-73 -9.5h-371v698zM387 418q121 -1 110 109q-3 27 -13.5 40.5t-27.5 19.5
t-39.5 7t-48.5 1h-141v-177h160zM428 108q6 0 24 1t37 10t34 30t15 60q0 40 -14 61t-36 30.5t-48 11t-50 1.5h-163v-205h201z" />
    <glyph glyph-name="C" unicode="C" horiz-adv-x="733" 
d="M709 224q-12 -48 -38.5 -91t-66.5 -75t-93 -50.5t-119 -18.5q-84 0 -149 29t-110 78t-68 114.5t-23 139.5q0 75 23 140.5t68 114t110 77t149 28.5q66 0 119 -18.5t93 -50t66 -74t38 -91.5l-144 -25q-22 81 -63 119.5t-110 38.5q-46 0 -83 -18t-63 -51.5t-40 -81.5
t-14 -108q0 -59 14 -107t40.5 -81.5t63 -52t81.5 -18.5q68 0 109 39t64 120z" />
    <glyph glyph-name="D" unicode="D" horiz-adv-x="759" 
d="M383 699q84 0 147 -26.5t104.5 -73t62.5 -110.5t21 -139q0 -70 -21 -133.5t-63 -111.5t-104.5 -76t-146.5 -28h-304v698h304zM384 106q44 0 78 17.5t57 49t35 76.5t12 101q0 120 -46 181.5t-137 61.5h-156v-487h157z" />
    <glyph glyph-name="E" unicode="E" horiz-adv-x="675" 
d="M639 698v-105h-413v-177h337v-105h-337v-205h422v-105h-571v698z" />
    <glyph glyph-name="F" unicode="F" horiz-adv-x="656" 
d="M629 698v-105h-404v-195h328v-105h-327v-292h-149v698z" />
    <glyph glyph-name="G" unicode="G" horiz-adv-x="782" 
d="M722 364v-364h-132l-5 64q-35 -34 -81.5 -54.5t-112.5 -20.5q-84 0 -149 29t-110 78t-68 114.5t-23 139.5q0 75 23 140.5t68 114t110 77t149 28.5q65 0 119.5 -18t96.5 -49t70.5 -73.5t42.5 -90.5l-143 -26q-26 80 -71.5 118t-114.5 38q-46 0 -83 -18t-63 -51.5
t-40 -81.5t-14 -108q0 -59 14 -107t40.5 -81.5t63.5 -52t82 -18.5q72 0 120 43.5t68 124.5h-196v105h339z" />
    <glyph glyph-name="H" unicode="H" horiz-adv-x="761" 
d="M683 699v-698h-148v311h-308v-311h-148v698h148v-282h308v282h148z" />
    <glyph glyph-name="I" unicode="I" horiz-adv-x="277" 
d="M213 698v-698h-148v698h148z" />
    <glyph glyph-name="J" unicode="J" horiz-adv-x="507" 
d="M435 699v-483q0 -109 -57 -168t-161 -59q-47 0 -85 14t-65.5 39t-43.5 60t-20 77l144 26q3 -33 9 -55.5t15 -35.5t20.5 -18.5t25.5 -5.5q30 0 49.5 27.5t19.5 98.5v483h149z" />
    <glyph glyph-name="K" unicode="K" horiz-adv-x="730" 
d="M531 703l149 -26l-288 -283l348 -393h-177l-265 301l-70 -68v-232h-148v698h148v-295z" />
    <glyph glyph-name="L" unicode="L" horiz-adv-x="637" 
d="M225 699v-593h405v-105h-553v698h148z" />
    <glyph glyph-name="M" unicode="M" horiz-adv-x="858" 
d="M776 698v-698h-148v403l-142 -403h-136l-141 403v-403h-148v698h196l162 -466l162 466h195z" />
    <glyph glyph-name="N" unicode="N" horiz-adv-x="720" 
d="M663 699v-698h-156l-300 463v-463h-149v698h154l302 -466v466h149z" />
    <glyph glyph-name="O" unicode="O" horiz-adv-x="781" 
d="M391 710q84 0 149 -28.5t109.5 -77t67.5 -114t23 -140.5q0 -74 -23 -139.5t-67.5 -114.5t-109.5 -78t-149 -29t-149 29t-110 78t-68 114.5t-23 139.5q0 75 23 140.5t68 114t110 77t149 28.5zM392 609q-46 0 -83 -18t-63 -51.5t-40 -81.5t-14 -108q0 -59 14 -107
t40.5 -81.5t63.5 -52t82 -18.5t81.5 18.5t62.5 52t40 81.5t14 107q0 60 -14 108t-40 81.5t-62.5 51.5t-82.5 18h1z" />
    <glyph glyph-name="P" unicode="P" horiz-adv-x="687" 
d="M402 699q58 0 104 -14t78 -40t49 -62t17 -81q0 -44 -15.5 -83.5t-46.5 -69t-77.5 -47t-108.5 -17.5h-176v-284h-149v698h325zM387 390q61 -1 87.5 27t23.5 84q-3 55 -29 74t-75 19h-168v-204h161z" />
    <glyph glyph-name="Q" unicode="Q" horiz-adv-x="804" 
d="M547 21q-32 -15 -72 -24t-84 -9q-84 0 -149 29t-110 78t-68 114.5t-23 139.5q0 75 23 140.5t68 114t110 77t149 28.5t149 -28.5t109.5 -77t67.5 -114t23 -140.5q0 -72 -21 -134t-66 -115l122 -123l-155 -27zM392 607q-46 0 -83 -18t-63 -51.5t-40 -81.5t-14 -108
q0 -59 14 -107t40.5 -81.5t63.5 -52t82 -18.5t81.5 18.5t62.5 52t40 81.5t14 107q0 60 -14 108t-40 81.5t-62.5 51.5t-82.5 18h1z" />
    <glyph glyph-name="R" unicode="R" horiz-adv-x="724" 
d="M421 697q55 0 99 -13.5t74.5 -38t47 -59t16.5 -76.5q0 -38 -12 -72.5t-36 -61.5t-60.5 -45t-84.5 -24l241 -307h-171l-232 303h-75v-303h-149v698zM421 408q47 0 68.5 24t21.5 77q0 48 -19.5 65.5t-70.5 17.5h-194v-184h194z" />
    <glyph glyph-name="S" unicode="S" horiz-adv-x="708" 
d="M274 329q-12 2 -33.5 6t-45.5 12t-49 20.5t-45 31.5t-32.5 45.5t-12.5 63.5q0 52 25.5 90t67 63t94.5 37t107 12t104 -12t90.5 -33t70 -48.5t42.5 -58.5l-142 -26q-17 27 -38 43t-43 24t-43.5 10.5t-39.5 2.5q-70 0 -107.5 -25t-35.5 -79q1 -19 10 -32t22 -21t27.5 -12
t25.5 -6l159 -29q12 -2 32.5 -7t44.5 -14t48.5 -23t45 -35t33 -50t12.5 -67q0 -63 -28.5 -106t-72 -68.5t-95.5 -36.5t-100 -11q-42 0 -94 5.5t-101.5 25t-90.5 56.5t-61 100l143 26q15 -38 38 -61t50 -35t57 -15.5t59 -3.5q75 0 109.5 31.5t34.5 88.5q0 25 -9.5 41.5
t-23 26.5t-29 15t-26.5 7z" />
    <glyph glyph-name="T" unicode="T" horiz-adv-x="704" 
d="M693 699v-105h-267v-593h-148v593h-267v105h682z" />
    <glyph glyph-name="U" unicode="U" horiz-adv-x="739" 
d="M682 697v-215v-257q0 -58 -22.5 -103t-63 -75.5t-96 -46t-120.5 -15.5q-70 0 -125.5 15.5t-94.5 45.5t-60 75t-21 104v473h148v-473q0 -38 8.5 -64t26.5 -42t47 -23t71 -7q77 0 115 31.5t38 105.5v473z" />
    <glyph glyph-name="V" unicode="V" horiz-adv-x="707" 
d="M687 699l-249 -698h-170l-249 698h156l179 -508l179 508h154z" />
    <glyph glyph-name="W" unicode="W" horiz-adv-x="1027" 
d="M1008 699l-177 -698h-174l-143 467l-143 -467h-174l-177 698h156l116 -466l143 466h159l143 -466l116 466h155z" />
    <glyph glyph-name="X" unicode="X" horiz-adv-x="733" 
d="M216 699l154 -216l150 216h167l-238 -326l266 -372h-168l-181 261l-177 -261h-168l268 373l-241 325h168z" />
    <glyph glyph-name="Y" unicode="Y" horiz-adv-x="719" 
d="M700 699l-266 -412v-286h-148v286l-266 412h163l177 -287l177 287h163z" />
    <glyph glyph-name="Z" unicode="Z" horiz-adv-x="672" 
d="M635 699v-88l-426 -505h435v-105h-615v88l426 505h-410v105h590z" />
    <glyph glyph-name="bracketleft" unicode="[" horiz-adv-x="365" 
d="M339 755v-95h-156v-673h156v-95h-303v863h303z" />
    <glyph glyph-name="backslash" unicode="\" horiz-adv-x="489" 
d="M146 699l311 -698h-114l-311 698h114z" />
    <glyph glyph-name="bracketright" unicode="]" horiz-adv-x="365" 
d="M329 755v-863h-303v95h156v673h-156v95h303z" />
    <glyph glyph-name="asciicircum" unicode="^" horiz-adv-x="625" 
d="M422 290l-109 254l-109 -254h-167l198 430h157l198 -430h-168z" />
    <glyph glyph-name="underscore" unicode="_" horiz-adv-x="600" 
d="M574 -69v-105h-547v105h547z" />
    <glyph glyph-name="grave" unicode="`" horiz-adv-x="342" 
d="M197 700l109 -121h-136l-134 121h161z" />
    <glyph glyph-name="a" unicode="a" horiz-adv-x="537" 
d="M53 370q5 36 24.5 62t49.5 43.5t67.5 26t78.5 8.5q45 0 85 -10t70 -30t48 -51t18 -73v-347h-132l-9 52q-16 -23 -55 -43t-93 -20q-38 0 -64.5 7.5t-45.5 20t-31 28t-20 31.5q-6 12 -10.5 29t-4.5 37q0 16 4 33.5t13.5 33.5t25 30t38.5 25q12 6 25.5 11.5t38.5 12.5
t66.5 14.5t108.5 17.5v29q0 43 -17 56.5t-60 13.5q-22 0 -36.5 -3t-23.5 -10.5t-12.5 -21.5t-3.5 -36zM349 223q-40 -6 -66.5 -10.5t-44 -8.5t-28.5 -8.5t-19 -10.5q-25 -16 -25 -46q0 -16 7 -30q8 -15 23.5 -23t34.5 -6q44 3 78.5 31.5t39.5 80.5v31z" />
    <glyph glyph-name="b" unicode="b" horiz-adv-x="606" 
d="M189 750v-302q16 27 51 43.5t69 18.5q56 5 99.5 -11.5t69.5 -38.5q51 -42 73.5 -95.5t22.5 -114.5q0 -60 -21.5 -112.5t-70.5 -94.5q-26 -23 -61.5 -38t-90.5 -15q-38 0 -79 16.5t-64 51.5l-8 -58h-133v750h143zM187 203q13 -59 45 -87.5t77 -28.5q52 0 84.5 42.5
t32.5 121.5q0 78 -33.5 121t-82.5 43q-43 0 -75.5 -29.5t-45.5 -88.5z" />
    <glyph glyph-name="c" unicode="c" horiz-adv-x="582" 
d="M556 181q-7 -39 -27.5 -74.5t-53 -62.5t-76.5 -42.5t-97 -15.5q-63 0 -113 21t-85 56.5t-54 83t-19 101.5t19 101.5t54 83t85 56.5t113 21q53 0 97 -15.5t76.5 -42.5t53 -62.5t27.5 -74.5l-139 -24q-14 66 -43 95.5t-72 29.5q-26 0 -49 -11.5t-40 -33t-27 -52.5t-10 -70
t10 -70t27 -52.5t40 -33t49 -11.5q43 0 72 29.5t43 95.5z" />
    <glyph glyph-name="d" unicode="d" horiz-adv-x="601" 
d="M558 749v-750h-133l-8 58q-23 -35 -64 -51.5t-79 -16.5q-55 0 -90.5 15t-61.5 38q-49 42 -70.5 94.5t-21.5 112.5q0 61 22.5 115t73.5 96q26 22 69.5 38.5t99.5 11.5q34 -2 69 -18.5t51 -43.5v302zM412 294q-13 59 -45.5 88.5t-75.5 29.5q-49 0 -82.5 -43t-33.5 -121
q0 -79 32.5 -121.5t84.5 -42.5q45 0 77 29t45 88z" />
    <glyph glyph-name="e" unicode="e" horiz-adv-x="586" 
d="M549 152q-11 -34 -33 -63.5t-53.5 -51.5t-71.5 -35t-88 -13q-63 0 -113 21t-85 56.5t-54 83t-19 101.5t19 102t54 84t85.5 56.5t112.5 20.5q63 0 112 -21t82.5 -57.5t50.5 -84.5t17 -102l-108 -20h-279q5 -69 40 -108t85 -39q38 0 64.5 22t42.5 71zM410 324
q-14 47 -41.5 70.5t-65.5 23.5q-39 0 -69 -23.5t-45 -69.5z" />
    <glyph glyph-name="f" unicode="f" horiz-adv-x="457" 
d="M119 607q0 61 44 93t119 32q76 0 120 -32.5t42 -92.5l-101 -17q0 30 -11.5 40t-35.5 9q-17 -1 -24 -9t-7 -21v-108h134v-98h-134v-402h-144v402h-94v75l94 17z" />
    <glyph glyph-name="g" unicode="g" horiz-adv-x="606" 
d="M416 61q-16 -27 -51 -43.5t-69 -18.5q-54 -2 -98.5 13t-70.5 37q-51 42 -73.5 94.5t-22.5 106.5q0 60 21.5 112.5t70.5 94.5q26 23 63 38t96 15q39 0 76.5 -16.5t59.5 -51.5l8 58h133v-496q0 -47 -19.5 -81.5t-53.5 -57t-78.5 -33.5t-94.5 -11q-40 0 -77.5 7.5t-69 22
t-54.5 37t-34 52.5l138 25q9 -29 31 -39.5t66 -10.5q54 0 78 18.5t24 70.5zM417 295q-13 59 -45 88t-77 29q-52 0 -84.5 -42.5t-32.5 -121.5q0 -71 33 -112.5t84 -41.5q43 0 75.5 29.5t45.5 88.5z" />
    <glyph glyph-name="h" unicode="h" horiz-adv-x="543" 
d="M194 750v-307q16 31 50.5 48t71.5 18q45 1 81 -11.5t61 -36t38.5 -56.5t13.5 -72v-333h-144v333q0 22 -5.5 36.5t-13.5 23.5t-17.5 13.5t-18.5 5.5q-27 3 -49 -11.5t-37 -39.5t-23.5 -57t-8.5 -63v-241h-144v750h145z" />
    <glyph glyph-name="i" unicode="i" horiz-adv-x="236" 
d="M204 732v-130h-167v130h167zM193 500v-500h-144v500h144z" />
    <glyph glyph-name="j" unicode="j" horiz-adv-x="413" 
d="M374 732v-130h-167v130h167zM365 500v-542q0 -61 -44 -93t-119 -32q-76 0 -120 33t-42 93l101 17q0 -30 11.5 -40t35.5 -9q17 1 24 9t7 21v543h146z" />
    <glyph glyph-name="k" unicode="k" horiz-adv-x="562" 
d="M195 750v-424l195 178l144 -25l-185 -165l202 -313h-156l-142 227l-58 -52v-175h-144v749h144z" />
    <glyph glyph-name="l" unicode="l" horiz-adv-x="207" 
d="M180 732v-732h-144v732h144z" />
    <glyph glyph-name="m" unicode="m" horiz-adv-x="879" 
d="M197 444q19 33 53.5 49.5t73.5 16.5q56 0 95 -20t60 -55q26 33 69.5 53.5t91.5 20.5q93 0 143.5 -48.5t50.5 -127.5v-333h-144v333q0 22 -5.5 36.5t-13.5 23.5t-17.5 13.5t-18.5 5.5q-27 3 -49 -11.5t-37 -39.5t-23.5 -57t-8.5 -63v-241h-144v333q0 22 -5.5 36.5
t-13.5 23.5t-17.5 13.5t-18.5 5.5q-27 3 -49 -11.5t-37 -39.5t-23.5 -57t-8.5 -63v-241h-144v500h133z" />
    <glyph glyph-name="n" unicode="n" horiz-adv-x="538" 
d="M183 443q19 33 54 49.5t74 16.5q93 0 143.5 -48.5t50.5 -127.5v-333h-144v333q0 22 -5.5 36.5t-13.5 23.5t-17.5 13.5t-18.5 5.5q-27 3 -49 -11.5t-37 -39.5t-23.5 -57t-8.5 -63v-241h-144v500h133z" />
    <glyph glyph-name="o" unicode="o" horiz-adv-x="606" 
d="M303 512q62 0 112 -20.5t85.5 -56.5t54.5 -84t19 -102t-19 -101.5t-54 -83t-85 -56.5t-113 -21t-113 21t-85 56.5t-54 83t-19 101.5t19 102t54 84t85.5 56.5t112.5 20.5zM303 417q-26 0 -49 -11.5t-40 -33t-27 -52.5t-10 -71q0 -39 10 -70t27 -52.5t40 -33t49 -11.5
t49 11.5t40 33t27 52.5t10 70q0 40 -10 71t-27 52.5t-40 33t-49 11.5z" />
    <glyph glyph-name="p" unicode="p" horiz-adv-x="611" 
d="M190 442q23 35 64 51.5t79 16.5q55 0 90.5 -15t61.5 -38q49 -42 70.5 -94.5t21.5 -112.5q0 -61 -22.5 -114.5t-73.5 -95.5q-26 -22 -69.5 -38.5t-99.5 -11.5q-34 2 -69 18.5t-51 43.5v-232h-144v680h133zM195 204q13 -59 45.5 -88.5t75.5 -29.5q49 0 82.5 43t33.5 121
q0 79 -32.5 121.5t-84.5 42.5q-45 0 -77 -28.5t-45 -87.5z" />
    <glyph glyph-name="q" unicode="q" horiz-adv-x="602" 
d="M417 51q-16 -27 -51 -43.5t-69 -18.5q-56 -5 -99.5 11.5t-69.5 38.5q-51 42 -73.5 96t-22.5 115q0 60 21.5 112.5t70.5 94.5q26 23 61.5 38t90.5 15q38 0 79 -16.5t64 -51.5l8 58h133v-680h-144zM419 296q-13 59 -45 87.5t-77 28.5q-52 0 -84.5 -42.5t-32.5 -121.5
q0 -78 33.5 -121t82.5 -43q43 0 75.5 29.5t45.5 88.5z" />
    <glyph glyph-name="r" unicode="r" horiz-adv-x="502" 
d="M187 423q14 34 49.5 58.5t74.5 27.5q42 5 77.5 -7.5t61.5 -37t40.5 -58.5t13.5 -73l-130 -23q0 30 -5.5 50t-15 31.5t-21 16t-22.5 4.5q-27 0 -49.5 -15t-38.5 -39.5t-25 -55t-9 -61.5v-241h-144v500h133z" />
    <glyph glyph-name="s" unicode="s" horiz-adv-x="565" 
d="M204 222q-17 3 -42 10.5t-48 23.5t-38.5 42.5t-13.5 67.5q2 38 23 65.5t53.5 45.5t72 27t79.5 9q38 0 76.5 -9.5t70 -26.5t53.5 -40.5t28 -51.5l-130 -22q-16 34 -43.5 44t-56.5 10q-35 1 -58.5 -12.5t-25.5 -42.5q0 -11 4 -18t10.5 -12t13.5 -7.5t13 -3.5l121 -18
q12 -2 41 -8t58 -21.5t50 -44t19 -76.5q-2 -47 -25 -78t-56.5 -50t-73 -27t-75.5 -8q-33 0 -72.5 5.5t-77 22t-70.5 46t-52 77.5l133 24q9 -26 23 -41t32 -23.5t39.5 -11t45.5 -2.5q38 0 61.5 16t23.5 48q0 27 -16.5 37.5t-36.5 13.5z" />
    <glyph glyph-name="t" unicode="t" horiz-adv-x="452" 
d="M247 642v-143h134v-98h-134v-289q0 -15 8.5 -22t22.5 -8q24 -1 35.5 9t11.5 40l101 -17q2 -60 -42 -92.5t-120 -32.5q-75 0 -119 31.5t-44 92.5v294l-94 17v75h94v143h146z" />
    <glyph glyph-name="u" unicode="u" horiz-adv-x="548" 
d="M503 500v-500h-133l-5 57q-19 -33 -54 -49.5t-74 -16.5q-93 0 -143.5 48.5t-50.5 127.5v333h144v-333q0 -22 5.5 -37t13.5 -24t17.5 -13t18.5 -5q27 -3 49 11.5t37 39.5t23.5 57t8.5 63v241h143z" />
    <glyph glyph-name="v" unicode="v" horiz-adv-x="561" 
d="M547 500l-180 -500h-173l-180 500h152l115 -341l115 341h151z" />
    <glyph glyph-name="w" unicode="w" horiz-adv-x="824" 
d="M811 500l-166 -500h-145l-87 274l-87 -274h-145l-166 500h152l89 -290l89 290h135l89 -290l89 290h153z" />
    <glyph glyph-name="x" unicode="x" horiz-adv-x="560" 
d="M543 500l-189 -250l189 -250h-159l-106 147l-101 -147h-158l188 253l-189 247h159l105 -146l102 146h159z" />
    <glyph glyph-name="y" unicode="y" horiz-adv-x="547" 
d="M532 500l-186 -525q-6 -18 -17 -44.5t-30.5 -51t-50.5 -42t-79 -17.5q-45 0 -73 12t-44 30t-22.5 38.5t-7.5 37.5l106 18q0 -12 4 -18.5t9 -10t9.5 -4.5t6.5 -1q12 0 19.5 4t12.5 12.5t9 20.5t9 28l-184 513h152l102 -304l102 304h153z" />
    <glyph glyph-name="z" unicode="z" horiz-adv-x="570" 
d="M412 500l109 -20v-62l-302 -321h307v-98h-368l-113 21v61l303 321h-284v98h348z" />
    <glyph glyph-name="braceleft" unicode="{" horiz-adv-x="445" 
d="M104 374q23 0 33.5 22.5t8.5 82.5q0 20 -1 52t-1 83q0 33 13 60t35.5 46.5t53.5 30.5t67 13h13q24 0 42.5 -4t40.5 -10v-102q-42 10 -57 13.5t-23 3.5h-6q-17 -1 -24 -12t-8 -39q0 -50 1.5 -81.5t1.5 -52.5q1 -71 -24 -107t-65 -52q20 -8 36.5 -20.5t28.5 -31t18.5 -45
t5.5 -61.5q0 -21 -1.5 -53t-1.5 -82q1 -28 8 -39t24 -12h6q4 0 9.5 0.5t14.5 2.5t22.5 5.5t34.5 8.5v-101q-25 -8 -46 -12t-49 -3q-36 2 -67 13t-53.5 30.5t-35.5 46.5t-13 60q0 51 1 83t1 52q2 60 -8 82.5t-33 22.5h-81v104z" />
    <glyph glyph-name="bar" unicode="|" horiz-adv-x="244" 
d="M201 770v-953h-158v953h158z" />
    <glyph glyph-name="braceright" unicode="}" horiz-adv-x="445" 
d="M34 746q22 6 40.5 10t42.5 4h13q36 -2 67 -13t53.5 -30.5t35.5 -46.5t13 -60q0 -51 -1 -83t-1 -52v-17q0 -51 10.5 -69.5t31.5 -18.5h81v-104h-81q-21 0 -31.5 -18.5t-10.5 -69.5v-17q0 -20 1 -52t1 -83q0 -33 -13 -60t-35.5 -46.5t-53.5 -30.5t-67 -13q-28 -1 -49 3
t-46 12v101q21 -5 34.5 -8.5t22.5 -5.5t14.5 -2.5t9.5 -0.5h6q17 1 24 12t8 39q0 50 -1.5 82t-1.5 53q-2 70 23.5 106t65.5 52q-20 8 -36.5 20.5t-28.5 31.5t-18.5 45.5t-5.5 61.5q0 21 1.5 52.5t1.5 81.5q-1 28 -8 39t-24 12h-6q-8 0 -23 -3.5t-57 -13.5z" />
    <glyph glyph-name="asciitilde" unicode="~" horiz-adv-x="593" 
d="M24 194q3 19 8 39.5t15.5 39.5t29.5 36t52 28q27 9 54 9q45 0 88 -17.5t85 -36.5q12 -6 24 -10.5t23 -4.5q16 0 27 12.5t15 45.5l122 -22q0 -73 -40 -110t-102 -37q-32 0 -67 10t-71 30q-42 21 -64.5 31.5t-36.5 10.5q-8 0 -15 -3q-13 -7 -16 -26t-5 -45z" />
    <glyph glyph-name="exclamdown" unicode="&#xa1;" horiz-adv-x="231" 
d="M205 535v-145h-179v145h179zM184 325l12 -488h-160l12 488h136z" />
    <glyph glyph-name="cent" unicode="&#xa2;" horiz-adv-x="585" 
d="M374 586v-86q78 -19 124.5 -70t58.5 -116l-139 -24q-14 66 -43 95.5t-72 29.5q-26 0 -49 -11.5t-40 -33t-27 -52.5t-10 -70t10 -70t27 -52.5t40 -33t49 -11.5q43 0 72 29.5t43 95.5l139 -24q-12 -65 -58.5 -116t-124.5 -71v-85h-144v86q-47 11 -83.5 35t-62 57.5
t-39 74.5t-13.5 86t13.5 86t39 74.5t62 57.5t83.5 35v86z" />
    <glyph glyph-name="sterling" unicode="&#xa3;" horiz-adv-x="654" 
d="M172 404q0 22 -0.5 44t-0.5 47q0 41 15.5 78t45 65.5t71 45.5t93.5 18q49 1 90 -10.5t71.5 -34t48.5 -53.5t23 -67l-142 -25q-8 51 -27 72.5t-60 19.5q-35 -2 -59 -28.5t-24 -79.5q0 -25 0.5 -47t0.5 -45h207v-105h-210q-2 -26 -6 -55.5t-10 -65.5q-9 -53 -32 -92h149
q12 0 24.5 6t21.5 17.5t14 29t3 40.5l148 -26q1 -31 -12 -60t-36.5 -51.5t-57 -36t-72.5 -13.5h-420v93q34 3 55 2.5t34 7.5t21 30t16 69q5 29 8 55t5 50h-140v105h144z" />
    <glyph glyph-name="currency" unicode="&#xa4;" 
 />
    <glyph glyph-name="yen" unicode="&#xa5;" horiz-adv-x="732" 
d="M707 699l-155 -240h47v-105h-115l-37 -58h153v-105h-159v-191h-148v191h-155v105h149l-37 58h-112v105h44l-155 240h163l177 -287l177 287h163z" />
    <glyph glyph-name="brokenbar" unicode="&#xa6;" horiz-adv-x="233" 
d="M190 743v-377h-147v377h147zM190 205v-378h-147v378h147z" />
    <glyph glyph-name="section" unicode="&#xa7;" horiz-adv-x="565" 
d="M203 88q-17 2 -42.5 8.5t-49 20t-39.5 35.5t-14 55q2 25 14.5 43.5t36.5 34.5q-23 14 -37 33.5t-14 49.5v9q2 31 23.5 54t54.5 38t73 22t81 7q39 0 78 -7.5t71 -21.5t55 -33t29 -41l-133 -18q-19 27 -46.5 35.5t-53.5 9.5q-35 1 -59 -8t-27 -38v-3q0 -17 12 -24.5
t24 -9.5l128 -15q13 -2 42 -6.5t59 -17.5t51.5 -37t19.5 -63q-2 -26 -13 -45.5t-32 -36.5q23 -15 35 -35t10 -51q-2 -38 -25.5 -64t-58 -41.5t-74.5 -22t-76 -6.5q-35 0 -77 5t-82 19.5t-73 41t-51 70.5l140 19q11 -27 26.5 -42.5t33.5 -23.5t39 -10t44 -2q39 0 62.5 14
t23.5 41q0 22 -13.5 31t-33.5 12zM222 253q-6 -4 -12 -12.5t-6 -25.5v-9q2 -20 16 -28.5t32 -10.5l116 -15l16 -2q10 12 10 31q0 8 -1 12q-5 23 -19.5 33t-28.5 12z" />
    <glyph glyph-name="dieresis" unicode="&#xa8;" horiz-adv-x="441" 
d="M338 700v-108h-233v108h233z" />
    <glyph glyph-name="copyright" unicode="&#xa9;" horiz-adv-x="827" 
d="M415 710q81 0 149 -27.5t117.5 -76t77 -114.5t27.5 -142q0 -75 -28 -141t-77.5 -114.5t-117.5 -77t-149 -28.5t-149.5 28.5t-118 77t-77.5 114.5t-28 141q0 76 28 142t78 114.5t118 76t149 27.5h1zM415 632q-59 0 -109.5 -21t-87.5 -58.5t-58 -89.5t-21 -114
q0 -61 21 -112.5t58 -89.5t87.5 -59.5t109.5 -21.5t109.5 21.5t87 59.5t57.5 89.5t21 112.5q0 62 -21 114t-57.5 89.5t-87 58.5t-109.5 21zM604 284q-7 -30 -23 -56.5t-40 -47t-56.5 -32.5t-72.5 -12q-50 0 -89 17.5t-66 47.5t-41 69.5t-14 83.5q0 45 14 84t41 68.5t66 46.5
t89 17q40 0 72.5 -11.5t57 -32t40.5 -47t23 -56.5l-93 -17q-11 48 -34.5 71t-63.5 23q-52 0 -82.5 -38.5t-30.5 -107.5q0 -68 30.5 -107.5t81.5 -39.5q40 0 63.5 23t35.5 71z" />
    <glyph glyph-name="ordfeminine" unicode="&#xaa;" horiz-adv-x="431" 
d="M63 674q4 27 18.5 46.5t36.5 33t49.5 20t56.5 6.5q32 0 61.5 -7.5t52 -23t36 -39t13.5 -54.5v-261h-93l-5 37q-12 -19 -41.5 -32t-67.5 -13q-27 0 -48 6t-36 16t-25 21t-15 22q-5 9 -8 21.5t-3 26.5q0 23 12 48t47 45q9 5 19.5 9.5t29.5 9.5t50 10.5t81 12.5v20
q0 31 -13 41t-47 10t-47.5 -10t-12.5 -41zM286 564q-34 -5 -55 -8t-33.5 -6t-19.5 -6.5t-14 -8.5q-8 -6 -11.5 -14.5t-3.5 -17.5q0 -13 5 -23q8 -14 19.5 -18.5t23.5 -3.5q35 2 58.5 24t29.5 60z" />
    <glyph glyph-name="guillemotleft" unicode="&#xab;" horiz-adv-x="621" 
d="M311 554v-170l-139 -130l139 -130v-170l-286 271v59zM597 553v-170l-139 -130l139 -130v-170l-286 271v59z" />
    <glyph glyph-name="logicalnot" unicode="&#xac;" 
 />
    <glyph glyph-name="registered" unicode="&#xae;" horiz-adv-x="827" 
d="M415 710q81 0 149 -27.5t117.5 -76t77 -114.5t27.5 -142q0 -75 -28 -141t-77.5 -114.5t-117.5 -77t-149 -28.5t-149.5 28.5t-118 77t-77.5 114.5t-28 141q0 76 28 142t78 114.5t118 76t149 27.5h1zM415 632q-59 0 -109.5 -21t-87.5 -58.5t-58 -89.5t-21 -114
q0 -61 21 -112.5t58 -89.5t87.5 -59.5t109.5 -21.5t109.5 21.5t87 59.5t57.5 89.5t21 112.5q0 62 -21 114t-57.5 89.5t-87 58.5t-109.5 21zM437 547q60 0 95 -29t35 -77q0 -40 -26 -72t-73 -40l130 -165h-102l-124 162h-35v-162h-87v383h187zM438 392q24 0 34 11.5t10 37.5
q0 24 -9 32t-36 8h-100v-88z" />
    <glyph glyph-name="macron" unicode="&#xaf;" horiz-adv-x="538" 
d="M502 704v-95h-466v95h466z" />
    <glyph glyph-name="degree" unicode="&#xb0;" horiz-adv-x="391" 
d="M196 735q34 0 63.5 -9t51 -24t33.5 -35t12 -42t-12 -41.5t-33.5 -34.5t-51 -24t-63.5 -9q-35 0 -64 9t-50.5 24t-33.5 34.5t-12 41.5t12 42t33.5 35t50.5 24t64 9zM195 670q-12 0 -25 -9.5t-13 -35.5q0 -25 13 -34.5t25 -9.5t25.5 9.5t13.5 34.5q0 26 -13 35.5t-25 9.5
h-1z" />
    <glyph glyph-name="plusminus" unicode="&#xb1;" horiz-adv-x="674" 
d="M408 601v-170h237v-105h-237v-170h-142v170h-237v105h237v170h142zM645 105v-105h-617v105h617z" />
    <glyph glyph-name="uni00B2" unicode="&#xb2;" horiz-adv-x="462" 
d="M53 552q-1 34 12 63t37.5 50t59 33t75.5 12q42 0 75 -11.5t55.5 -32t33.5 -49t10 -62.5q-1 -32 -14.5 -57.5t-36.5 -48t-55 -43.5t-69 -45q-18 -11 -33.5 -22.5t-26.5 -23.5h240v-78h-372v9q0 14 3.5 33t18 42.5t44.5 51t83 59.5q33 19 54.5 34.5t34.5 29.5t19 27.5
t7 28.5q3 38 -14 60t-57 22q-82 0 -82 -78q0 -5 0.5 -11t1.5 -12z" />
    <glyph glyph-name="uni00B3" unicode="&#xb3;" horiz-adv-x="473" 
d="M61 575q-2 25 10.5 49t35 42.5t54 30t69.5 11.5q37 0 69.5 -10.5t57 -28t38.5 -41t14 -49.5q0 -29 -15 -53.5t-41 -41.5q35 -19 54.5 -48.5t19.5 -65.5q0 -29 -14 -56t-39.5 -47t-62 -32t-81.5 -12t-80.5 13t-59 34t-35.5 48t-10 56l104 18q-1 -6 -1 -12v-11
q0 -35 18.5 -52t64.5 -17q95 0 95 71q0 38 -21.5 56.5t-72.5 18.5h-63v72h63q76 0 76 62q0 25 -20.5 40t-56.5 15q-33 0 -49 -14t-16 -40q0 -11 3 -24z" />
    <glyph glyph-name="acute" unicode="&#xb4;" horiz-adv-x="342" 
d="M307 700l-134 -121h-136l109 121h161z" />
    <glyph glyph-name="paragraph" unicode="&#xb6;" horiz-adv-x="566" 
d="M530 700v-866h-131v779h-61v-779h-131v565h-12q-44 0 -75.5 12.5t-52.5 33t-31 47.5t-10 57t10 57t31 47.5t52.5 33t75.5 12.5z" />
    <glyph glyph-name="periodcentered" unicode="&#xb7;" horiz-adv-x="231" 
d="M205 356v-148h-179v148h179z" />
    <glyph glyph-name="cedilla" unicode="&#xb8;" horiz-adv-x="353" 
d="M241 10l-37 -43q9 -2 17.5 -4.5t16.5 -5.5q36 -8 57.5 -29.5t21.5 -51.5q0 -38 -40 -66t-108 -28q-56 0 -89 19.5t-44 49.5l104 18q6 -25 37 -25q16 0 29.5 7t13.5 25q0 17 -8.5 27.5t-34.5 10.5q-15 0 -23 -3.5t-13 -12.5l-102 3l103 109h99z" />
    <glyph glyph-name="uni00B9" unicode="&#xb9;" horiz-adv-x="316" 
d="M234 701v-466h-102v341q-19 -6 -38 -7.5t-37 -1.5h-14v65q15 3 30.5 6.5t28.5 10.5t21.5 19.5t8.5 33.5z" />
    <glyph glyph-name="ordmasculine" unicode="&#xba;" horiz-adv-x="491" 
d="M246 779q46 0 83 -15.5t63 -42t40 -62.5t14 -77t-14 -76.5t-40 -62.5t-63 -42.5t-83 -15.5t-83 15.5t-63 42.5t-40 62.5t-14 76.5t14 77t40 62.5t63 42t83 15.5zM246 706q-42 0 -70 -33t-28 -92q0 -58 28 -91t70 -33t70 33t28 91q0 59 -28 92t-70 33z" />
    <glyph glyph-name="guillemotright" unicode="&#xbb;" horiz-adv-x="621" 
d="M525 285v-59l-286 -271v135l-142 -135v170l139 130l-139 130v170l142 -134v134z" />
    <glyph glyph-name="onequarter" unicode="&#xbc;" horiz-adv-x="916" 
d="M609 716l-327 -732h-115l327 732h115zM232 698v-466h-102v341q-19 -6 -38 -7.5t-37 -1.5h-14v65q15 3 30.5 6.5t28.5 10.5t21.5 19.5t8.5 33.5zM669 465h102v-262h95v-76h-95v-127h-102v128h-242v63zM669 326l-109 -123h109v123z" />
    <glyph glyph-name="onehalf" unicode="&#xbd;" horiz-adv-x="904" 
d="M609 716l-327 -732h-115l327 732h115zM234 698v-466h-102v341q-19 -6 -38 -7.5t-37 -1.5h-14v65q15 3 30.5 6.5t28.5 10.5t21.5 19.5t8.5 33.5zM499 316q-1 34 12 63t37.5 50t59 33t75.5 12q42 0 75 -11.5t55.5 -32t33.5 -49t10 -62.5q-1 -32 -14.5 -57.5t-36.5 -48
t-55 -43.5t-69 -45q-18 -11 -33.5 -22.5t-26.5 -23.5h240v-78h-372v7q0 12 3.5 31t18.5 43.5t45 53t83 60.5q33 19 54.5 34.5t34.5 29.5t19 27.5t7 28.5q3 38 -14 60t-57 22q-82 0 -82 -78q0 -5 0.5 -11t1.5 -12z" />
    <glyph glyph-name="threequarters" unicode="&#xbe;" horiz-adv-x="1068" 
d="M759 716l-327 -732h-115l327 732h115zM64 572q-2 25 10.5 49t35 42.5t54 30t69.5 11.5q37 0 69.5 -10.5t57 -28t38.5 -41t14 -49.5q0 -29 -15 -53.5t-41 -41.5q35 -19 54.5 -48.5t19.5 -65.5q0 -29 -14 -56t-39.5 -47t-62 -32t-81.5 -12t-80.5 13t-59 34t-35.5 48t-11 56
l104 18q-1 -6 -1 -12v-11q0 -35 18.5 -52t64.5 -17q95 0 95 71q0 38 -21.5 56.5t-72.5 18.5h-63v72h63q76 0 76 62q0 25 -20.5 40t-56.5 15q-33 0 -49 -14t-16 -40q0 -11 3 -24zM817 464h102v-262h95v-76h-95v-127h-102v128h-242v63zM817 325l-109 -123h109v123z" />
    <glyph glyph-name="questiondown" unicode="&#xbf;" horiz-adv-x="435" 
d="M364 531v-145h-179v145h179zM346 321v-36q0 -19 -2 -40.5t-9 -44t-20.5 -45.5t-37.5 -45q-30 -28 -51.5 -48t-34.5 -36t-19 -30t-6 -31t10.5 -33t38.5 -16q26 0 47 12.5t30 47.5l124 -22q-2 -24 -18 -47.5t-43 -42.5t-63.5 -31t-80.5 -12q-48 0 -83.5 12t-58.5 32.5
t-34.5 46.5t-11.5 53q0 35 13 62.5t34 51.5t48 47.5t55 50.5q12 12 18 28t9 34.5t3 39.5v42h143z" />
    <glyph glyph-name="Agrave" unicode="&#xc0;" horiz-adv-x="705" 
d="M377 868l109 -121h-136l-134 121h161zM437 699l251 -698h-155l-64 185h-230l-64 -185h-155l251 698h166zM355 516l-79 -227h158z" />
    <glyph glyph-name="Aacute" unicode="&#xc1;" horiz-adv-x="705" 
d="M490 868l-134 -121h-136l109 121h161zM437 699l251 -698h-155l-64 185h-230l-64 -185h-155l251 698h166zM355 516l-79 -227h158z" />
    <glyph glyph-name="Acircumflex" unicode="&#xc2;" horiz-adv-x="705" 
d="M409 870l125 -137h-141l-40 59l-41 -59h-140l125 137h112zM437 699l251 -698h-155l-64 185h-230l-64 -185h-155l251 698h166zM355 516l-79 -227h158z" />
    <glyph glyph-name="Atilde" unicode="&#xc3;" horiz-adv-x="705" 
d="M140 765q3 19 7.5 34.5t13.5 28t24 22t38 16.5q22 7 48 7q38 0 73.5 -11t61.5 -21q5 -2 12 -4.5t15 -2.5q11 0 20 7.5t9 30.5l102 -14q2 -26 -6 -45.5t-24 -32t-38 -19t-48 -6.5q-44 0 -93 17q-27 11 -42 16.5t-35 7.5q-14 2 -22.5 -10t-12.5 -31zM436 697l251 -698h-155
l-64 185h-230l-64 -185h-155l251 698h166zM354 514l-79 -227h158z" />
    <glyph glyph-name="Adieresis" unicode="&#xc4;" horiz-adv-x="705" 
d="M336 868v-108h-168v108h168zM538 868v-108h-168v108h168zM437 699l251 -698h-155l-64 185h-230l-64 -185h-155l251 698h166zM355 516l-79 -227h158z" />
    <glyph glyph-name="Aring" unicode="&#xc5;" horiz-adv-x="705" 
d="M351 760q-21 0 -38 7.5t-29 20.5t-19 30.5t-7 36.5t7 36.5t19.5 31t29.5 21t38 7.5t38 -7.5t29.5 -21t19.5 -31t7 -36.5t-7 -36.5t-19.5 -30.5t-29.5 -20.5t-38 -7.5h-1zM686 1h-155l-64 185h-230l-64 -185h-155l251 698h165zM431 289l-79 227l-79 -227h158z" />
    <glyph glyph-name="AE" unicode="&#xc6;" horiz-adv-x="949" 
d="M916 698v-105h-413v-177h337v-105h-337v-205h422v-105h-571v185h-115l-64 -185h-155l251 698zM354 515l-79 -227h79v227z" />
    <glyph glyph-name="Ccedilla" unicode="&#xc7;" horiz-adv-x="733" 
d="M318 -6q-66 12 -117.5 45t-86.5 80t-53 106t-18 124q0 75 23 140.5t68 114t110 77t149 28.5q66 0 119 -18.5t93 -50t66 -74t38 -91.5l-144 -25q-22 81 -63 119.5t-110 38.5q-46 0 -83 -18t-63 -51.5t-40 -81.5t-14 -108q0 -59 14 -107t40.5 -81.5t63 -52t81.5 -18.5
q68 0 109 39t64 120l144 -25q-11 -41 -31 -77.5t-50 -66t-70 -50t-89 -29.5q-28 -7 -54 -8l-11 -14l34 -9q36 -8 57.5 -29.5t21.5 -51.5q0 -19 -10.5 -36t-30 -30t-46.5 -21t-61 -8q-56 0 -89 20t-44 50l104 18q6 -26 37 -26q16 0 29.5 7.5t13.5 25.5q0 17 -8.5 27.5
t-34.5 10.5q-15 0 -23 -4t-13 -13l-102 3z" />
    <glyph glyph-name="Egrave" unicode="&#xc8;" horiz-adv-x="675" 
d="M363 868l109 -121h-136l-134 121h161zM639 698v-105h-413v-177h337v-105h-337v-205h422v-105h-571v698z" />
    <glyph glyph-name="Eacute" unicode="&#xc9;" horiz-adv-x="675" 
d="M477 868l-134 -121h-136l109 121h161zM640 698v-105h-413v-177h337v-105h-337v-205h422v-105h-571v698z" />
    <glyph glyph-name="Ecircumflex" unicode="&#xca;" horiz-adv-x="675" 
d="M487 779l-81 -45l-48 31l-41 -2l-132 -29l66 91l123 45zM640 698v-105h-413v-177h337v-105h-337v-205h422v-105h-571v698z" />
    <glyph glyph-name="Edieresis" unicode="&#xcb;" horiz-adv-x="675" 
d="M224 761v108h232v-108h-232zM649 106v-105h-571v698h562v-105h-413v-177h337v-105h-337v-205z" />
    <glyph glyph-name="Igrave" unicode="&#xcc;" horiz-adv-x="310" 
d="M181 868l109 -121h-136l-134 121h161zM231 699v-698h-148v698h148z" />
    <glyph glyph-name="Iacute" unicode="&#xcd;" horiz-adv-x="317" 
d="M294 868l-134 -121h-136l109 121h161zM231 699v-698h-148v698h148z" />
    <glyph glyph-name="Icircumflex" unicode="&#xce;" horiz-adv-x="367" 
d="M331 779l-81 -45l-48 31l-41 -2l-132 -29l66 91l123 45zM257 699v-698h-148v698h148z" />
    <glyph glyph-name="Idieresis" unicode="&#xcf;" horiz-adv-x="376" 
d="M156 867v-108h-153v108h153zM373 867v-108h-153v108h153zM262 699v-698h-148v698h148z" />
    <glyph glyph-name="Eth" unicode="&#xd0;" horiz-adv-x="880" 
d="M501 699q84 0 147 -26.5t104.5 -73t62.5 -110.5t21 -139q0 -70 -21 -133.5t-63 -111.5t-104.5 -76t-146.5 -28h-304v294h-145v105h145v299h304zM502 106q44 0 78 17.5t57 49t35 76.5t12 101q0 120 -46 181.5t-137 61.5h-156v-193h160v-105h-160v-189h157z" />
    <glyph glyph-name="Ntilde" unicode="&#xd1;" horiz-adv-x="720" 
d="M146 765q3 19 7.5 34.5t13.5 28t24 22t38 16.5q22 7 48 7q38 0 73.5 -11t61.5 -21q5 -2 12 -4.5t15 -2.5q11 0 20 7.5t9 30.5l102 -14q2 -26 -6 -45.5t-24 -32t-38 -19t-48 -6.5q-44 0 -93 17q-27 11 -42 16.5t-35 7.5q-14 2 -22.5 -10t-12.5 -31zM661 696v-698h-156
l-300 463v-463h-149v698h154l302 -466v466h149z" />
    <glyph glyph-name="Ograve" unicode="&#xd2;" horiz-adv-x="781" 
d="M415 875l109 -121h-136l-134 121h161zM391 711q84 0 149 -28.5t109.5 -77t67.5 -114t23 -140.5q0 -74 -23 -139.5t-67.5 -114.5t-109.5 -78t-149 -29t-149 29t-110 78t-68 114.5t-23 139.5q0 75 23 140.5t68 114t110 77t149 28.5zM392 610q-46 0 -83 -18t-63 -51.5
t-40 -81.5t-14 -108q0 -59 14 -107t40.5 -81.5t63.5 -52t82 -18.5t81.5 18.5t62.5 52t40 81.5t14 107q0 60 -14 108t-40 81.5t-62.5 51.5t-82.5 18h1z" />
    <glyph glyph-name="Oacute" unicode="&#xd3;" horiz-adv-x="781" 
d="M528 875l-134 -121h-136l109 121h161zM391 711q84 0 149 -28.5t109.5 -77t67.5 -114t23 -140.5q0 -74 -23 -139.5t-67.5 -114.5t-109.5 -78t-149 -29t-149 29t-110 78t-68 114.5t-23 139.5q0 75 23 140.5t68 114t110 77t149 28.5zM392 610q-46 0 -83 -18t-63 -51.5
t-40 -81.5t-14 -108q0 -59 14 -107t40.5 -81.5t63.5 -52t82 -18.5t81.5 18.5t62.5 52t40 81.5t14 107q0 60 -14 108t-40 81.5t-62.5 51.5t-82.5 18h1z" />
    <glyph glyph-name="Ocircumflex" unicode="&#xd4;" horiz-adv-x="781" 
d="M538 786l-81 -45l-48 31l-41 -2l-132 -29l66 91l123 45zM391 711q84 0 149 -28.5t109.5 -77t67.5 -114t23 -140.5q0 -74 -23 -139.5t-67.5 -114.5t-109.5 -78t-149 -29t-149 29t-110 78t-68 114.5t-23 139.5q0 75 23 140.5t68 114t110 77t149 28.5zM392 610
q-46 0 -83 -18t-63 -51.5t-40 -81.5t-14 -108q0 -59 14 -107t40.5 -81.5t63.5 -52t82 -18.5t81.5 18.5t62.5 52t40 81.5t14 107q0 60 -14 108t-40 81.5t-62.5 51.5t-82.5 18h1z" />
    <glyph glyph-name="Otilde" unicode="&#xd5;" horiz-adv-x="781" 
d="M178 772q3 19 7.5 34.5t13.5 28t24 22t38 16.5q22 7 48 7q38 0 73.5 -11t61.5 -21q5 -2 12 -4.5t15 -2.5q11 0 20 7.5t9 30.5l102 -14q2 -26 -6 -45.5t-24 -32t-38 -19t-48 -6.5q-44 0 -93 17q-27 11 -42 16.5t-35 7.5q-14 2 -22.5 -10t-12.5 -31zM390 708
q84 0 149 -28.5t109.5 -77t67.5 -114t23 -140.5q0 -74 -23 -139.5t-67.5 -114.5t-109.5 -78t-149 -29t-149 29t-110 78t-68 114.5t-23 139.5q0 75 23 140.5t68 114t110 77t149 28.5zM391 607q-46 0 -83 -18t-63 -51.5t-40 -81.5t-14 -108q0 -59 14 -107t40.5 -81.5t63.5 -52
t82 -18.5t81.5 18.5t62.5 52t40 81.5t14 107q0 60 -14 108t-40 81.5t-62.5 51.5t-82.5 18h1z" />
    <glyph glyph-name="Odieresis" unicode="&#xd6;" horiz-adv-x="781" 
d="M275 767v108h232v-108h-232zM391 710q84 0 149 -28.5t109.5 -77t67.5 -114t23 -140.5q0 -74 -23 -139.5t-67.5 -114.5t-109.5 -78t-149 -29t-149 29t-110 78t-68 114.5t-23 139.5q0 75 23 140.5t68 114t110 77t149 28.5zM392 91q45 0 81.5 18.5t62.5 52t40 81.5t14 107
q0 60 -14 108t-40 81.5t-62.5 51.5t-82.5 18t-83 -18t-63 -51.5t-40 -81.5t-14 -108q0 -59 14 -107t40.5 -81.5t63.5 -52t82 -18.5h1z" />
    <glyph glyph-name="multiply" unicode="&#xd7;" horiz-adv-x="556" 
d="M444 544l88 -88l-168 -168l168 -168l-87 -87l-168 168l-168 -168l-87 88l168 168l-168 168l88 88l168 -168z" />
    <glyph glyph-name="Oslash" unicode="&#xd8;" horiz-adv-x="781" 
d="M644 787l-58 -130q75 -48 114.5 -128.5t39.5 -178.5q0 -74 -23 -139.5t-67.5 -114.5t-109.5 -78t-149 -29q-52 0 -97 12l-41 -92h-114l59 132q-77 48 -117 130t-40 179q0 75 23 140.5t68 114t110 77t149 28.5q53 0 98 -12l40 90zM448 601q-27 8 -56 8q-46 0 -83 -18
t-63 -51.5t-40 -81.5t-14 -108q0 -122 59 -190zM339 99q27 -8 54 -8q45 0 81.5 18.5t62.5 52t40 81.5t14 107q0 122 -57 188z" />
    <glyph glyph-name="Ugrave" unicode="&#xd9;" horiz-adv-x="739" 
d="M394 868l109 -121h-136l-134 121h161zM681 696v-215v-257q0 -58 -22.5 -103t-63 -75.5t-96 -46t-120.5 -15.5q-70 0 -125.5 15.5t-94.5 45.5t-60 75t-21 104v473h148v-473q0 -38 8.5 -64t26.5 -42t47 -23t71 -7q77 0 115 31.5t38 105.5v473z" />
    <glyph glyph-name="Uacute" unicode="&#xda;" horiz-adv-x="739" 
d="M508 868l-134 -121h-136l109 121h161zM682 696v-215v-257q0 -58 -22.5 -103t-63 -75.5t-96 -46t-120.5 -15.5q-70 0 -125.5 15.5t-94.5 45.5t-60 75t-21 104v473h148v-473q0 -38 8.5 -64t26.5 -42t47 -23t71 -7q77 0 115 31.5t38 105.5v473z" />
    <glyph glyph-name="Ucircumflex" unicode="&#xdb;" horiz-adv-x="739" 
d="M518 779l-81 -45l-48 31l-41 -2l-132 -29l66 91l123 45zM682 696v-215v-257q0 -58 -22.5 -103t-63 -75.5t-96 -46t-120.5 -15.5q-70 0 -125.5 15.5t-94.5 45.5t-60 75t-21 104v473h148v-473q0 -38 8.5 -64t26.5 -42t47 -23t71 -7q77 0 115 31.5t38 105.5v473z" />
    <glyph glyph-name="Udieresis" unicode="&#xdc;" horiz-adv-x="739" 
d="M255 761v108h232v-108h-232zM682 482v-257q0 -58 -22.5 -103t-63 -75.5t-96 -46t-120.5 -15.5q-70 0 -125.5 15.5t-94.5 45.5t-60 75t-21 104v473h148v-473q0 -38 8.5 -64t26.5 -42t47 -23t71 -7q77 0 115 31.5t38 105.5v473h148z" />
    <glyph glyph-name="Yacute" unicode="&#xdd;" horiz-adv-x="719" 
d="M497 868l-134 -121h-136l109 121h161zM701 699l-266 -412v-286h-148v286l-266 412h163l177 -287l177 287h163z" />
    <glyph glyph-name="Thorn" unicode="&#xde;" horiz-adv-x="658" 
d="M225 699v-113h177q58 0 104 -14t78 -40t49 -62t17 -81q0 -44 -15.5 -83.5t-46.5 -69t-77.5 -47t-108.5 -17.5h-176v-171h-149v698h148zM386 277q61 -1 87.5 27t23.5 84q-3 55 -29 74t-75 19h-168v-204h161z" />
    <glyph glyph-name="germandbls" unicode="&#xdf;" horiz-adv-x="600" 
d="M47 528q0 42 18 77t49.5 60.5t74.5 40t94 14.5q53 0 99 -15.5t79.5 -41.5t53 -60.5t19.5 -72.5q0 -49 -23.5 -85.5t-66.5 -61.5q114 -55 114 -175q0 -44 -19 -83.5t-54.5 -69.5t-86.5 -48t-115 -18h-42v103h42q134 0 134 116q0 61 -32.5 92t-101.5 31h-42v95h42
q52 0 81 26t29 77q0 42 -30 67t-79 25q-47 0 -71 -24t-24 -67v-529h-141z" />
    <glyph glyph-name="agrave" unicode="&#xe0;" horiz-adv-x="537" 
d="M295 700l109 -121h-136l-134 121h161zM53 370q5 36 24.5 62t49.5 43.5t67.5 26t78.5 8.5q45 0 85 -10t70 -30t48 -51t18 -73v-347h-132l-9 52q-16 -23 -55 -43t-93 -20q-38 0 -64.5 7.5t-45.5 20t-31 28t-20 31.5q-6 12 -10.5 29t-4.5 37q0 16 4 33.5t13.5 33.5t25 30
t38.5 25q12 6 25.5 11.5t38.5 12.5t66.5 14.5t108.5 17.5v29q0 43 -17 56.5t-60 13.5q-22 0 -36.5 -3t-23.5 -10.5t-12.5 -21.5t-3.5 -36zM349 223q-40 -6 -66.5 -10.5t-44 -8.5t-28.5 -8.5t-19 -10.5q-25 -16 -25 -46q0 -16 7 -30q8 -15 23.5 -23t34.5 -6q44 3 78.5 31.5
t39.5 80.5v31z" />
    <glyph glyph-name="aacute" unicode="&#xe1;" horiz-adv-x="537" 
d="M412 700l-134 -121h-136l109 121h161zM53 370q5 36 24.5 62t49.5 43.5t67.5 26t78.5 8.5q45 0 85 -10t70 -30t48 -51t18 -73v-347h-132l-9 52q-16 -23 -55 -43t-93 -20q-38 0 -64.5 7.5t-45.5 20t-31 28t-20 31.5q-6 12 -10.5 29t-4.5 37q0 16 4 33.5t13.5 33.5t25 30
t38.5 25q12 6 25.5 11.5t38.5 12.5t66.5 14.5t108.5 17.5v29q0 43 -17 56.5t-60 13.5q-22 0 -36.5 -3t-23.5 -10.5t-12.5 -21.5t-3.5 -36zM349 223q-40 -6 -66.5 -10.5t-44 -8.5t-28.5 -8.5t-19 -10.5q-25 -16 -25 -46q0 -16 7 -30q8 -15 23.5 -23t34.5 -6q44 3 78.5 31.5
t39.5 80.5v31z" />
    <glyph glyph-name="acircumflex" unicode="&#xe2;" horiz-adv-x="537" 
d="M419 611l-81 -45l-48 31l-41 -2l-132 -29l66 91l123 45zM53 370q5 36 24.5 62t49.5 43.5t67.5 26t78.5 8.5q45 0 85 -10t70 -30t48 -51t18 -73v-347h-132l-9 52q-16 -23 -55 -43t-93 -20q-38 0 -64.5 7.5t-45.5 20t-31 28t-20 31.5q-6 12 -10.5 29t-4.5 37q0 16 4 33.5
t13.5 33.5t25 30t38.5 25q12 6 25.5 11.5t38.5 12.5t66.5 14.5t108.5 17.5v29q0 43 -17 56.5t-60 13.5q-22 0 -36.5 -3t-23.5 -10.5t-12.5 -21.5t-3.5 -36zM349 223q-40 -6 -66.5 -10.5t-44 -8.5t-28.5 -8.5t-19 -10.5q-25 -16 -25 -46q0 -16 7 -30q8 -15 23.5 -23t34.5 -6
q44 3 78.5 31.5t39.5 80.5v31z" />
    <glyph glyph-name="atilde" unicode="&#xe3;" horiz-adv-x="537" 
d="M57 596q3 19 7.5 34.5t13.5 28t24 22t38 16.5q22 7 48 7q38 0 73.5 -11t61.5 -21q5 -2 12 -4.5t15 -2.5q11 0 20 7.5t9 30.5l102 -14q2 -26 -6 -45.5t-24 -32t-38 -19t-48 -6.5q-44 0 -93 17q-27 11 -42 16.5t-35 7.5q-14 2 -22.5 -10t-12.5 -31zM51 367q5 36 24.5 62
t49.5 43.5t67.5 26t78.5 8.5q45 0 85 -10t70 -30t48 -51t18 -73v-347h-132l-9 52q-16 -23 -55 -43t-93 -20q-38 0 -64.5 7.5t-45.5 20t-31 28t-20 31.5q-6 12 -10.5 29t-4.5 37q0 16 4 33.5t13.5 33.5t25 30t38.5 25q12 6 25.5 11.5t38.5 12.5t66.5 14.5t108.5 17.5v29
q0 43 -17 56.5t-60 13.5q-22 0 -36.5 -3t-23.5 -10.5t-12.5 -21.5t-3.5 -36zM347 220q-40 -6 -66.5 -10.5t-44 -8.5t-28.5 -8.5t-19 -10.5q-25 -16 -25 -46q0 -16 7 -30q8 -15 23.5 -23t34.5 -6q44 3 78.5 31.5t39.5 80.5v31z" />
    <glyph glyph-name="adieresis" unicode="&#xe4;" horiz-adv-x="537" 
d="M239 698v-108h-153v108h153zM456 698v-108h-153v108h153zM52 369q5 36 24.5 62t49.5 43.5t67.5 26t78.5 8.5q45 0 85 -10t70 -30t48 -51t18 -73v-347h-132l-9 52q-16 -23 -55 -43t-93 -20q-38 0 -64.5 7.5t-45.5 20t-31 28t-20 31.5q-6 12 -10.5 29t-4.5 37q0 16 4 33.5
t13.5 33.5t25 30t38.5 25q12 6 25.5 11.5t38.5 12.5t66.5 14.5t108.5 17.5v29q0 43 -17 56.5t-60 13.5q-22 0 -36.5 -3t-23.5 -10.5t-12.5 -21.5t-3.5 -36zM348 222q-40 -6 -66.5 -10.5t-44 -8.5t-28.5 -8.5t-19 -10.5q-25 -16 -25 -46q0 -16 7 -30q8 -15 23.5 -23t34.5 -6
q44 3 78.5 31.5t39.5 80.5v31z" />
    <glyph glyph-name="aring" unicode="&#xe5;" horiz-adv-x="537" 
d="M269 591q-21 0 -38 7.5t-29 20.5t-19 30.5t-7 36.5t7 36.5t19.5 31t29.5 21t38 7.5t38 -7.5t29.5 -21t19.5 -31t7 -36.5t-7 -36.5t-19.5 -30.5t-29.5 -20.5t-38 -7.5h-1zM51 369q5 36 24.5 62t49.5 43.5t67.5 26t78.5 8.5q45 0 85 -10t70 -30t48 -51t18 -73v-347h-132
l-9 52q-16 -23 -55 -43t-93 -20q-38 0 -64.5 7.5t-45.5 20t-31 28t-20 31.5q-6 12 -10.5 29t-4.5 37q0 16 4 33.5t13.5 33.5t25 30t38.5 25q12 6 25.5 11.5t38.5 12.5t66.5 14.5t108.5 17.5v29q0 43 -17 56.5t-60 13.5q-22 0 -36.5 -3t-23.5 -10.5t-12.5 -21.5t-3.5 -36z
M347 222q-40 -6 -66.5 -10.5t-44 -8.5t-28.5 -8.5t-19 -10.5q-25 -16 -25 -46q0 -16 7 -30q8 -15 23.5 -23t34.5 -6q44 3 78.5 31.5t39.5 80.5v31z" />
    <glyph glyph-name="ae" unicode="&#xe6;" horiz-adv-x="905" 
d="M53 371q5 36 24.5 62t49.5 43.5t67.5 26t78.5 8.5q53 0 98.5 -14.5t74.5 -44.5q33 28 77 43.5t98 15.5q63 0 112 -21t82.5 -57.5t50.5 -84.5t17 -102l-108 -20h-279q5 -69 40 -108t85 -39q38 0 64.5 22t42.5 71l138 -24q-11 -34 -31.5 -63.5t-50.5 -51.5t-69 -35t-87 -13
q-37 0 -75 15t-59 45v-46h-132l-9 52q-16 -23 -55 -43t-93 -20q-38 0 -64.5 7.5t-45.5 20t-31 28t-20 31.5q-6 12 -10.5 29t-4.5 37q0 16 4 33.5t13.5 33.5t25 30t38.5 25q12 6 25.5 11.5t38.5 12.5t66.5 14.5t108.5 17.5v29q0 43 -17 56.5t-60 13.5q-22 0 -36.5 -3
t-23.5 -10.5t-12.5 -21.5t-3.5 -36zM726 322q-14 47 -41.5 70.5t-65.5 23.5q-39 0 -69 -23.5t-45 -69.5zM348 222q-40 -6 -66.5 -10.5t-44 -8.5t-28.5 -8.5t-19 -10.5q-25 -16 -25 -46q0 -16 7 -30q8 -15 23.5 -23t34.5 -6q44 3 78.5 31.5t39.5 80.5v31z" />
    <glyph glyph-name="ccedilla" unicode="&#xe7;" horiz-adv-x="582" 
d="M234 -7q-47 10 -84.5 34t-63.5 58t-40 75.5t-14 87.5q0 54 19 101.5t54 83t85 56.5t113 21q53 0 97 -15.5t76.5 -42.5t53 -62.5t27.5 -74.5l-139 -24q-14 66 -43 95.5t-72 29.5q-26 0 -49 -11.5t-40 -33t-27 -52.5t-10 -70t10 -70t27 -52.5t40 -33t49 -11.5q43 0 72 29.5
t43 95.5l139 -24q-12 -63 -56 -112t-114 -67q-27 -11 -54 -14l-11 -12l34 -9q36 -8 57.5 -29.5t21.5 -51.5q0 -19 -10.5 -36.5t-30 -30.5t-46.5 -20.5t-61 -7.5q-56 0 -89 19.5t-44 49.5l104 18q6 -25 37 -25q16 0 29.5 7t13.5 26q0 17 -8.5 27.5t-34.5 10.5q-15 0 -23 -4
t-13 -13l-102 3z" />
    <glyph glyph-name="egrave" unicode="&#xe8;" horiz-adv-x="586" 
d="M317 700l109 -121h-136l-134 121h161zM549 152q-11 -34 -33 -63.5t-53.5 -51.5t-71.5 -35t-88 -13q-63 0 -113 21t-85 56.5t-54 83t-19 101.5t19 102t54 84t85.5 56.5t112.5 20.5q63 0 112 -21t82.5 -57.5t50.5 -84.5t17 -102l-108 -20h-279q5 -69 40 -108t85 -39
q38 0 64.5 22t42.5 71zM410 324q-14 47 -41.5 70.5t-65.5 23.5q-39 0 -69 -23.5t-45 -69.5z" />
    <glyph glyph-name="eacute" unicode="&#xe9;" horiz-adv-x="586" 
d="M431 700l-134 -121h-136l109 121h161zM549 152q-11 -34 -33 -63.5t-53.5 -51.5t-71.5 -35t-88 -13q-63 0 -113 21t-85 56.5t-54 83t-19 101.5t19 102t54 84t85.5 56.5t112.5 20.5q63 0 112 -21t82.5 -57.5t50.5 -84.5t17 -102l-108 -20h-279q5 -69 40 -108t85 -39
q38 0 64.5 22t42.5 71zM410 324q-14 47 -41.5 70.5t-65.5 23.5q-39 0 -69 -23.5t-45 -69.5z" />
    <glyph glyph-name="ecircumflex" unicode="&#xea;" horiz-adv-x="586" 
d="M441 611l-81 -45l-48 31l-41 -2l-132 -29l66 91l123 45zM549 152q-11 -34 -33 -63.5t-53.5 -51.5t-71.5 -35t-88 -13q-63 0 -113 21t-85 56.5t-54 83t-19 101.5t19 102t54 84t85.5 56.5t112.5 20.5q63 0 112 -21t82.5 -57.5t50.5 -84.5t17 -102l-108 -20h-279
q5 -69 40 -108t85 -39q38 0 64.5 22t42.5 71zM410 324q-14 47 -41.5 70.5t-65.5 23.5q-39 0 -69 -23.5t-45 -69.5z" />
    <glyph glyph-name="edieresis" unicode="&#xeb;" horiz-adv-x="586" 
d="M262 699v-108h-153v108h153zM479 699v-108h-153v108h153zM549 152q-11 -34 -33 -63.5t-53.5 -51.5t-71.5 -35t-88 -13q-63 0 -113 21t-85 56.5t-54 83t-19 101.5t19 102t54 84t85.5 56.5t112.5 20.5q63 0 112 -21t82.5 -57.5t50.5 -84.5t17 -102l-108 -20h-279
q5 -69 40 -108t85 -39q38 0 64.5 22t42.5 71zM410 324q-14 47 -41.5 70.5t-65.5 23.5q-39 0 -69 -23.5t-45 -69.5z" />
    <glyph glyph-name="igrave" unicode="&#xec;" horiz-adv-x="306" 
d="M183 699l109 -121h-136l-134 121h161zM221 500v-500h-144v500h144z" />
    <glyph glyph-name="iacute" unicode="&#xed;" horiz-adv-x="318" 
d="M303 699l-134 -121h-136l109 121h161zM213 500v-500h-144v500h144z" />
    <glyph glyph-name="icircumflex" unicode="&#xee;" horiz-adv-x="360" 
d="M237 700l125 -137h-141l-40 59l-41 -59h-140l125 137h112zM251 500v-500h-144v500h144z" />
    <glyph glyph-name="idieresis" unicode="&#xef;" horiz-adv-x="369" 
d="M153 698v-108h-153v108h153zM370 698v-108h-153v108h153zM255 500v-500h-144v500h144z" />
    <glyph glyph-name="eth" unicode="&#xf0;" horiz-adv-x="629" 
d="M47 535q15 54 44 88.5t66 54t79 26.5t82 6q101 -3 172 -65l75 43l39 -68l-62 -35q30 -47 46 -106.5t16 -128.5q0 -182 -80 -271t-221 -89q-63 0 -114.5 20t-88 53.5t-56.5 77t-20 91.5q0 50 19.5 93t54.5 74.5t83.5 49.5t105.5 18q51 0 95 -18t67 -49l-1 11
q-4 63 -26 108l-60 -34l-39 68l52 30q-29 22 -66 24q-24 1 -43.5 -2t-34 -13t-24.5 -29.5t-17 -52.5zM289 367q-46 0 -78 -34.5t-32 -100.5q0 -62 32.5 -99t83.5 -39q71 -3 106.5 36t35.5 101q0 63 -40.5 99t-106.5 36z" />
    <glyph glyph-name="ntilde" unicode="&#xf1;" horiz-adv-x="538" 
d="M55 595q3 19 7.5 34.5t13.5 28t24 22t38 16.5q22 7 48 7q38 0 73.5 -11t61.5 -21q5 -2 12 -4.5t15 -2.5q11 0 20 7.5t9 30.5l102 -14q2 -26 -6 -45.5t-24 -32t-38 -19t-48 -6.5q-44 0 -93 17q-27 11 -42 16.5t-35 7.5q-14 2 -22.5 -10t-12.5 -31zM181 441q19 33 54 49.5
t74 16.5q93 0 143.5 -48.5t50.5 -127.5v-333h-144v333q0 22 -5.5 36.5t-13.5 23.5t-17.5 13.5t-18.5 5.5q-27 3 -49 -11.5t-37 -39.5t-23.5 -57t-8.5 -63v-241h-144v500h133z" />
    <glyph glyph-name="ograve" unicode="&#xf2;" horiz-adv-x="606" 
d="M327 700l109 -121h-136l-134 121h161zM303 512q62 0 112 -20.5t85.5 -56.5t54.5 -84t19 -102t-19 -101.5t-54 -83t-85 -56.5t-113 -21t-113 21t-85 56.5t-54 83t-19 101.5t19 102t54 84t85.5 56.5t112.5 20.5zM303 417q-26 0 -49 -11.5t-40 -33t-27 -52.5t-10 -71
q0 -39 10 -70t27 -52.5t40 -33t49 -11.5t49 11.5t40 33t27 52.5t10 70q0 40 -10 71t-27 52.5t-40 33t-49 11.5z" />
    <glyph glyph-name="oacute" unicode="&#xf3;" horiz-adv-x="606" 
d="M440 700l-134 -121h-136l109 121h161zM303 512q62 0 112 -20.5t85.5 -56.5t54.5 -84t19 -102t-19 -101.5t-54 -83t-85 -56.5t-113 -21t-113 21t-85 56.5t-54 83t-19 101.5t19 102t54 84t85.5 56.5t112.5 20.5zM303 417q-26 0 -49 -11.5t-40 -33t-27 -52.5t-10 -71
q0 -39 10 -70t27 -52.5t40 -33t49 -11.5t49 11.5t40 33t27 52.5t10 70q0 40 -10 71t-27 52.5t-40 33t-49 11.5z" />
    <glyph glyph-name="ocircumflex" unicode="&#xf4;" horiz-adv-x="606" 
d="M450 611l-81 -45l-48 31l-41 -2l-132 -29l66 91l123 45zM303 512q62 0 112 -20.5t85.5 -56.5t54.5 -84t19 -102t-19 -101.5t-54 -83t-85 -56.5t-113 -21t-113 21t-85 56.5t-54 83t-19 101.5t19 102t54 84t85.5 56.5t112.5 20.5zM303 417q-26 0 -49 -11.5t-40 -33
t-27 -52.5t-10 -71q0 -39 10 -70t27 -52.5t40 -33t49 -11.5t49 11.5t40 33t27 52.5t10 70q0 40 -10 71t-27 52.5t-40 33t-49 11.5z" />
    <glyph glyph-name="otilde" unicode="&#xf5;" horiz-adv-x="606" 
d="M90 597q3 19 7.5 34.5t13.5 28t24 22t38 16.5q22 7 48 7q38 0 73.5 -11t61.5 -21q5 -2 12 -4.5t15 -2.5q11 0 20 7.5t9 30.5l102 -14q2 -26 -6 -45.5t-24 -32t-38 -19t-48 -6.5q-44 0 -93 17q-27 11 -42 16.5t-35 7.5q-14 2 -22.5 -10t-12.5 -31zM302 510q62 0 112 -20.5
t85.5 -56.5t54.5 -84t19 -102t-19 -101.5t-54 -83t-85 -56.5t-113 -21t-113 21t-85 56.5t-54 83t-19 101.5t19 102t54 84t85.5 56.5t112.5 20.5zM302 415q-26 0 -49 -11.5t-40 -33t-27 -52.5t-10 -71q0 -39 10 -70t27 -52.5t40 -33t49 -11.5t49 11.5t40 33t27 52.5t10 70
q0 40 -10 71t-27 52.5t-40 33t-49 11.5z" />
    <glyph glyph-name="odieresis" unicode="&#xf6;" horiz-adv-x="606" 
d="M187 592v108h232v-108h-232zM303 512q62 0 112 -20.5t85.5 -56.5t54.5 -84t19 -102t-19 -101.5t-54 -83t-85 -56.5t-113 -21t-113 21t-85 56.5t-54 83t-19 101.5t19 102t54 84t85.5 56.5t112.5 20.5zM303 82q26 0 49 11.5t40 33t27 52.5t10 70q0 40 -10 71t-27 52.5
t-40 33t-49 11.5t-49 -11.5t-40 -33t-27 -52.5t-10 -71q0 -39 10 -70t27 -52.5t40 -33t49 -11.5z" />
    <glyph glyph-name="divide" unicode="&#xf7;" horiz-adv-x="674" 
d="M428 559v-148h-179v148h179zM646 341v-105h-617v105h617zM428 167v-148h-179v148h179z" />
    <glyph glyph-name="oslash" unicode="&#xf8;" horiz-adv-x="606" 
d="M510 588l-53 -118q56 -35 86 -93t30 -127q0 -54 -19 -101.5t-54 -83t-85 -56.5t-113 -21q-15 0 -29 1t-28 5l-38 -85h-114l54 122q-55 35 -85 92.5t-30 126.5q0 54 19 102t54 84t85.5 56.5t112.5 20.5q30 0 57 -6l36 81h114zM317 416q-4 1 -7.5 1.5t-8.5 0.5
q-26 0 -49 -11.5t-40 -33t-27 -52.5t-10 -71q0 -58 27 -96zM284 85q10 -2 17 -2q26 0 49 11.5t40 33t27 52.5t10 70q0 59 -27 97z" />
    <glyph glyph-name="ugrave" unicode="&#xf9;" horiz-adv-x="548" 
d="M298 700l109 -121h-136l-134 121h161zM503 501v-500h-133l-5 57q-19 -33 -54 -49.5t-74 -16.5q-93 0 -143.5 48.5t-50.5 127.5v333h144v-333q0 -22 5.5 -37t13.5 -24t17.5 -13t18.5 -5q27 -3 49 11.5t37 39.5t23.5 57t8.5 63v241h143z" />
    <glyph glyph-name="uacute" unicode="&#xfa;" horiz-adv-x="548" 
d="M411 700l-134 -121h-136l109 121h161zM503 501v-500h-133l-5 57q-19 -33 -54 -49.5t-74 -16.5q-93 0 -143.5 48.5t-50.5 127.5v333h144v-333q0 -22 5.5 -37t13.5 -24t17.5 -13t18.5 -5q27 -3 49 11.5t37 39.5t23.5 57t8.5 63v241h143z" />
    <glyph glyph-name="ucircumflex" unicode="&#xfb;" horiz-adv-x="548" 
d="M330 702l125 -137h-141l-40 59l-41 -59h-140l125 137h112zM503 501v-500h-133l-5 57q-19 -33 -54 -49.5t-74 -16.5q-93 0 -143.5 48.5t-50.5 127.5v333h144v-333q0 -22 5.5 -37t13.5 -24t17.5 -13t18.5 -5q27 -3 49 11.5t37 39.5t23.5 57t8.5 63v241h143z" />
    <glyph glyph-name="udieresis" unicode="&#xfc;" horiz-adv-x="548" 
d="M242 698v-108h-153v108h153zM459 698v-108h-153v108h153zM503 500v-500h-133l-5 57q-19 -33 -54 -49.5t-74 -16.5q-93 0 -143.5 48.5t-50.5 127.5v333h144v-333q0 -22 5.5 -37t13.5 -24t17.5 -13t18.5 -5q27 -3 49 11.5t37 39.5t23.5 57t8.5 63v241h143z" />
    <glyph glyph-name="yacute" unicode="&#xfd;" horiz-adv-x="547" 
d="M407 700l-134 -121h-136l109 121h161zM532 500l-186 -525q-6 -18 -17 -44.5t-30.5 -51t-50.5 -42t-79 -17.5q-45 0 -73 12t-44 30t-22.5 38.5t-7.5 37.5l106 18q0 -12 4 -18.5t9 -10t9.5 -4.5t6.5 -1q12 0 19.5 4t12.5 12.5t9 20.5t9 28l-184 513h152l102 -304l102 304
h153z" />
    <glyph glyph-name="thorn" unicode="&#xfe;" horiz-adv-x="600" 
d="M195 733v-267q48 46 121 46q63 0 104 -15t67 -38q49 -42 70.5 -94.5t21.5 -112.5q0 -61 -22 -114.5t-73 -95.5q-26 -22 -70.5 -37t-98.5 -13q-34 2 -67 16.5t-53 35.5v-208h-144v898zM197 205q13 -59 45.5 -88.5t75.5 -29.5q49 0 82.5 43t33.5 121q0 79 -32.5 121.5
t-84.5 42.5q-45 0 -77 -28.5t-45 -87.5z" />
    <glyph glyph-name="ydieresis" unicode="&#xff;" horiz-adv-x="547" 
d="M238 699v-108h-153v108h153zM455 699v-108h-153v108h153zM532 500l-186 -525q-6 -18 -17 -44.5t-30.5 -51t-50.5 -42t-79 -17.5q-45 0 -73 12t-44 30t-22.5 38.5t-7.5 37.5l106 18q0 -12 4 -18.5t9 -10t9.5 -4.5t6.5 -1q12 0 19.5 4t12.5 12.5t9 20.5t9 28l-184 513h152
l102 -304l102 304h153z" />
    <glyph glyph-name="dotlessi" unicode="&#x131;" horiz-adv-x="212" 
d="M180 500v-500h-144v500h144z" />
    <glyph glyph-name="Lslash" unicode="&#x141;" horiz-adv-x="667" 
d="M253 698v-253l124 72v-132l-124 -72v-208h405v-105h-553v227l-94 -55v133l94 55v339z" />
    <glyph glyph-name="lslash" unicode="&#x142;" horiz-adv-x="398" 
d="M260 698v-253l124 72v-132l-124 -72v-313h-149v227l-94 -55v133l94 55v339z" />
    <glyph glyph-name="OE" unicode="&#x152;" horiz-adv-x="966" 
d="M920 698v-105h-413v-177h337v-105h-337v-205h422v-105h-534q-84 0 -149 27t-109.5 74.5t-67.5 111t-23 137.5q0 75 23.5 138.5t68 110t109.5 73t149 26.5zM357 592q-76 -12 -119 -74t-43 -168q0 -104 43.5 -167.5t119.5 -76.5z" />
    <glyph glyph-name="oe" unicode="&#x153;" horiz-adv-x="987" 
d="M948 152q-11 -34 -33 -63.5t-53.5 -51.5t-71.5 -35t-88 -13q-64 0 -114.5 22.5t-85.5 60.5q-35 -38 -85.5 -60.5t-114.5 -22.5q-63 0 -113 21t-85 56.5t-54 83t-19 101.5t19 102t54 84t85.5 56.5t112.5 20.5q64 0 114.5 -22.5t85.5 -60.5q35 38 85.5 60.5t114.5 22.5
q63 0 112 -21t82.5 -57.5t50.5 -84.5t17 -102l-108 -20h-279q5 -69 40 -108t85 -39q38 0 64.5 22t42.5 71zM304 419q-26 0 -49 -11.5t-40 -33t-27 -52.5t-10 -71q0 -39 10 -70t27 -52.5t40 -33t49 -11.5t49 11.5t40 33t27 52.5t10 70q0 40 -10 71t-27 52.5t-40 33t-49 11.5z
M809 325q-14 47 -41.5 70.5t-65.5 23.5q-39 0 -69 -23.5t-45 -69.5z" />
    <glyph glyph-name="Scaron" unicode="&#x160;" horiz-adv-x="708" 
d="M533 876l-125 -137h-112l-125 137h140l41 -59l40 59h141zM274 329q-12 2 -33.5 6t-45.5 12t-49 20.5t-45 31.5t-32.5 45.5t-12.5 63.5q0 52 25.5 90t67 63t94.5 37t107 12t104 -12t90.5 -33t70 -48.5t42.5 -58.5l-142 -26q-17 27 -38 43t-43 24t-43.5 10.5t-39.5 2.5
q-70 0 -107.5 -25t-35.5 -79q1 -19 10 -32t22 -21t27.5 -12t25.5 -6l159 -29q12 -2 32.5 -7t44.5 -14t48.5 -23t45 -35t33 -50t12.5 -67q0 -63 -28.5 -106t-72 -68.5t-95.5 -36.5t-100 -11q-42 0 -94 5.5t-101.5 25t-90.5 56.5t-61 100l143 26q15 -38 38 -61t50 -35
t57 -15.5t59 -3.5q75 0 109.5 31.5t34.5 88.5q0 25 -9.5 41.5t-23 26.5t-29 15t-26.5 7z" />
    <glyph glyph-name="scaron" unicode="&#x161;" horiz-adv-x="565" 
d="M464 700l-125 -137h-112l-125 137h140l41 -59l40 59h141zM204 222q-17 3 -42 10.5t-48 23.5t-38.5 42.5t-13.5 67.5q2 38 23 65.5t53.5 45.5t72 27t79.5 9q38 0 76.5 -9.5t70 -26.5t53.5 -40.5t28 -51.5l-130 -22q-16 34 -43.5 44t-56.5 10q-35 1 -58.5 -12.5
t-25.5 -42.5q0 -11 4 -18t10.5 -12t13.5 -7.5t13 -3.5l121 -18q12 -2 41 -8t58 -21.5t50 -44t19 -76.5q-2 -47 -25 -78t-56.5 -50t-73 -27t-75.5 -8q-33 0 -72.5 5.5t-77 22t-70.5 46t-52 77.5l133 24q9 -26 23 -41t32 -23.5t39.5 -11t45.5 -2.5q38 0 61.5 16t23.5 48
q0 27 -16.5 37.5t-36.5 13.5z" />
    <glyph glyph-name="Ydieresis" unicode="&#x178;" horiz-adv-x="719" 
d="M244 761v108h232v-108h-232zM701 699l-266 -412v-286h-148v286l-266 412h163l177 -287l177 287h163z" />
    <glyph glyph-name="Zcaron" unicode="&#x17d;" horiz-adv-x="672" 
d="M517 871l-125 -137h-112l-125 137h140l41 -59l40 59h141zM635 699v-88l-426 -505h435v-105h-615v88l426 505h-410v105h590z" />
    <glyph glyph-name="zcaron" unicode="&#x17e;" horiz-adv-x="570" 
d="M466 701l-125 -137h-112l-125 137h140l41 -59l40 59h141zM413 500l109 -20v-62l-302 -321h307v-98h-368l-113 21v61l303 321h-284v98h348z" />
    <glyph glyph-name="florin" unicode="&#x192;" horiz-adv-x="437" 
d="M119 607q0 61 44 93t119 32q76 0 120 -32.5t42 -92.5l-101 -17q0 30 -11.5 40t-35.5 9q-17 -1 -24 -9t-7 -21v-108h134v-98h-134v-444q0 -60 -43.5 -92t-118.5 -32q-9 0 -18 0.5t-19 1.5v81h15q16 0 28 7t12 35v445h-94v75l94 17z" />
    <glyph glyph-name="circumflex" unicode="&#x2c6;" horiz-adv-x="433" 
d="M364 609l-81 -45l-48 31l-41 -2l-132 -29l66 91l123 45z" />
    <glyph glyph-name="caron" unicode="&#x2c7;" horiz-adv-x="433" 
d="M398 700l-125 -137h-112l-125 137h140l41 -59l40 59h141z" />
    <glyph glyph-name="breve" unicode="&#x2d8;" horiz-adv-x="451" 
d="M412 698q0 -29 -13 -55.5t-37 -47t-59 -32.5t-78 -12q-44 0 -78.5 12t-58.5 32.5t-37 47t-13 55.5h127v-9q0 -35 15.5 -47.5t45.5 -12.5q32 0 47.5 14.5t13.5 55.5z" />
    <glyph glyph-name="dotaccent" unicode="&#x2d9;" horiz-adv-x="240" 
d="M204 702v-108h-168v108h168z" />
    <glyph glyph-name="ring" unicode="&#x2da;" horiz-adv-x="391" 
d="M196 811q34 0 63.5 -9t51 -24t33.5 -35t12 -42t-12 -41.5t-33.5 -34.5t-51 -24t-63.5 -9q-35 0 -64 9t-50.5 24t-33.5 34.5t-12 41.5t12 42t33.5 35t50.5 24t64 9zM195 746q-12 0 -25 -9.5t-13 -35.5q0 -25 13 -34.5t25 -9.5t25.5 9.5t13.5 34.5q0 26 -13 35.5t-25 9.5
h-1z" />
    <glyph glyph-name="ogonek" unicode="&#x2db;" horiz-adv-x="287" 
d="M154 0q-10 -11 -20.5 -25t-10.5 -34q0 -8 3 -17q5 -20 21.5 -30.5t40.5 -10.5q18 0 35 4.5t29 12.5v-64q-17 -6 -33.5 -9.5t-35.5 -3.5q-38 0 -65.5 8t-45.5 21.5t-26.5 30.5t-8.5 36q0 23 10.5 43t40.5 38h66z" />
    <glyph glyph-name="tilde" unicode="&#x2dc;" horiz-adv-x="493" 
d="M33 599q3 19 7.5 34.5t13.5 28t24 22t38 16.5q22 7 48 7q38 0 73.5 -11t61.5 -21q5 -2 12 -4.5t15 -2.5q11 0 20 7.5t9 30.5l102 -14q2 -26 -6 -45.5t-24 -32t-38 -19t-48 -6.5q-44 0 -93 17q-27 11 -42 16.5t-35 7.5q-14 2 -22.5 -10t-12.5 -31z" />
    <glyph glyph-name="hungarumlaut" unicode="&#x2dd;" horiz-adv-x="477" 
d="M442 700l-134 -121h-271l109 121h296z" />
    <glyph glyph-name="uni0394" unicode="&#x394;" horiz-adv-x="600" 
 />
    <glyph glyph-name="uni03A9" unicode="&#x3a9;" horiz-adv-x="600" 
 />
    <glyph glyph-name="uni03BC" unicode="&#x3bc;" horiz-adv-x="600" 
 />
    <glyph glyph-name="pi" unicode="&#x3c0;" horiz-adv-x="600" 
 />
    <glyph glyph-name="endash" unicode="&#x2013;" horiz-adv-x="500" 
d="M476 342v-105h-452v105h452z" />
    <glyph glyph-name="emdash" unicode="&#x2014;" horiz-adv-x="1000" 
d="M962 342v-105h-924v105h924z" />
    <glyph glyph-name="quoteleft" unicode="&#x2018;" horiz-adv-x="234" 
d="M27 638q0 41 14.5 69.5t41.5 57.5l124 -22q-23 -21 -37.5 -39.5t-14.5 -47.5v-20h51v-148h-180z" />
    <glyph glyph-name="quoteright" unicode="&#x2019;" horiz-adv-x="234" 
d="M208 749v-149q0 -41 -14.5 -69.5t-41.5 -57.5l-124 22q23 21 37.5 39.5t14.5 47.5v20h-51v148z" />
    <glyph glyph-name="quotesinglbase" unicode="&#x201a;" horiz-adv-x="234" 
d="M208 148v-149q0 -41 -14.5 -69.5t-41.5 -58.5l-124 22q23 21 37.5 39.5t14.5 47.5v20h-51v148h179z" />
    <glyph glyph-name="quotedblleft" unicode="&#x201c;" horiz-adv-x="462" 
d="M27 638q0 41 14.5 69.5t41.5 57.5l124 -22q-23 -21 -37.5 -39.5t-14.5 -47.5v-20h51v-148h-180zM257 639q0 41 14.5 69.5t41.5 57.5l124 -22q-23 -21 -37.5 -39.5t-14.5 -47.5v-20h51v-148h-180z" />
    <glyph glyph-name="quotedblright" unicode="&#x201d;" horiz-adv-x="462" 
d="M208 749v-149q0 -41 -14.5 -69.5t-41.5 -57.5l-124 22q23 21 37.5 39.5t14.5 47.5v20h-51v148zM436 748v-149q0 -41 -14.5 -69.5t-41.5 -57.5l-124 22q23 21 37.5 39.5t14.5 47.5v20h-51v148z" />
    <glyph glyph-name="quotedblbase" unicode="&#x201e;" horiz-adv-x="462" 
d="M208 148v-149q0 -41 -14.5 -69.5t-41.5 -57.5l-124 22q23 20 37.5 39t14.5 48v19h-51v148h179zM436 148v-149q0 -41 -14.5 -69.5t-41.5 -57.5l-124 22q23 20 37.5 39t14.5 48v19h-51v148h179z" />
    <glyph glyph-name="dagger" unicode="&#x2020;" horiz-adv-x="502" 
d="M325 743v-236h151v-105h-151v-558h-147v558h-152v105h152v236h147z" />
    <glyph glyph-name="daggerdbl" unicode="&#x2021;" horiz-adv-x="502" 
d="M325 743v-236h151v-105h-151v-217h151v-105h-151v-236h-147v236h-152v105h152v217h-152v105h152v236h147z" />
    <glyph glyph-name="bullet" unicode="&#x2022;" horiz-adv-x="390" 
d="M194 418q37 0 68 -12.5t53.5 -33.5t35.5 -48.5t13 -57.5t-13 -57t-35.5 -47.5t-53.5 -33t-67 -12.5q-37 0 -68 12.5t-53.5 33t-35 47.5t-12.5 57t12.5 57.5t35 48.5t54 33.5t68.5 12.5h-2z" />
    <glyph glyph-name="ellipsis" unicode="&#x2026;" horiz-adv-x="668" 
d="M205 149v-148h-179v148h179zM423 149v-148h-179v148h179zM642 149v-148h-179v148h179z" />
    <glyph glyph-name="perthousand" unicode="&#x2030;" horiz-adv-x="1390" 
d="M806 716l-543 -732h-116l543 732h116zM220 697q44 0 79.5 -15t60 -40.5t38 -60t13.5 -73.5t-13.5 -73.5t-38 -60t-60 -40.5t-79.5 -15t-79.5 15t-60 40.5t-38 60t-13.5 73.5t13.5 73.5t38 60t60 40.5t79.5 15zM220 630q-41 0 -68 -32.5t-27 -89.5t27 -89t68 -32
q40 0 67.5 32t27.5 89t-27.5 89.5t-67.5 32.5zM741 382q44 0 79.5 -15t60 -40.5t38 -60t13.5 -73.5t-13.5 -73.5t-38 -60t-60 -40.5t-79.5 -15t-79.5 15t-60 40.5t-38 60t-13.5 73.5t13.5 73.5t38 60t60 40.5t79.5 15zM1171 382q44 0 79.5 -15t60 -40.5t38 -60t13.5 -73.5
t-13.5 -73.5t-38 -60t-60 -40.5t-79.5 -15t-79.5 15t-60 40.5t-38 60t-13.5 73.5t13.5 73.5t38 60t60 40.5t79.5 15zM741 315q-40 0 -67.5 -32.5t-27.5 -89.5t27.5 -89t67.5 -32t67.5 32t27.5 89t-27.5 89.5t-67.5 32.5zM1170 315q-40 0 -67.5 -32.5t-27.5 -89.5t27.5 -89
t68.5 -32q40 0 67.5 32t27.5 89t-27.5 89.5t-67.5 32.5h-1z" />
    <glyph glyph-name="guilsinglleft" unicode="&#x2039;" horiz-adv-x="335" 
d="M311 554v-170l-139 -130l139 -130v-170l-286 271v59z" />
    <glyph glyph-name="guilsinglright" unicode="&#x203a;" horiz-adv-x="335" 
d="M25 556l286 -271v-59l-286 -271v170l139 130l-139 130v171z" />
    <glyph glyph-name="fraction" unicode="&#x2044;" horiz-adv-x="509" 
d="M468 700l-311 -699h-115l311 699h115z" />
    <glyph glyph-name="Euro" unicode="&#x20ac;" horiz-adv-x="688" 
d="M110 489q13 45 37.5 85t61 69.5t85 47t110.5 17.5q49 0 91 -12t75 -32t56.5 -46.5t37.5 -55.5l-141 -25q-15 19 -28.5 32t-27.5 20.5t-29 11t-34 3.5q-51 0 -86 -29.5t-55 -86.5h276v-105h-297q-1 -8 -1 -16.5v-16.5v-15.5t1 -15.5h297v-105h-277q20 -57 55.5 -87.5
t86.5 -30.5q19 0 34 3.5t29 11t27.5 20.5t28.5 32l141 -25q-14 -29 -37.5 -55.5t-56.5 -46.5t-75 -32t-91 -12q-62 0 -110.5 17.5t-85 47.5t-61 70.5t-37.5 85.5h-81v105h63q-1 8 -1 15v15v16.5t1 16.5h-63v105z" />
    <glyph glyph-name="trademark" unicode="&#x2122;" horiz-adv-x="859" 
d="M408 699v-70h-142v-314h-94v314h-142v70h378zM832 699v-384h-94v177l-62 -176h-82l-62 176v-177h-94v384h117l80 -231l80 231h117z" />
    <glyph glyph-name="partialdiff" unicode="&#x2202;" 
 />
    <glyph glyph-name="emptyset" unicode="&#x2205;" 
 />
    <glyph glyph-name="product" unicode="&#x220f;" 
 />
    <glyph glyph-name="summation" unicode="&#x2211;" 
 />
    <glyph glyph-name="minus" unicode="&#x2212;" horiz-adv-x="674" 
d="M646 342v-105h-617v105h617z" />
    <glyph glyph-name="radical" unicode="&#x221a;" 
 />
    <glyph glyph-name="infinity" unicode="&#x221e;" 
 />
    <glyph glyph-name="integral" unicode="&#x222b;" 
 />
    <glyph glyph-name="approxequal" unicode="&#x2248;" horiz-adv-x="593" 
d="M24 331q3 19 8 39.5t15.5 39.5t29.5 36t52 28q27 9 54 9q45 0 88 -17.5t85 -36.5q12 -6 24 -10.5t23 -4.5q16 0 27 12.5t15 45.5l122 -22q0 -73 -40 -110t-102 -37q-32 0 -67 10t-71 30q-42 21 -64.5 31.5t-36.5 10.5q-8 0 -15 -3q-13 -7 -16 -26t-5 -45zM24 118
q3 19 8 39.5t15.5 39.5t29.5 36t52 28q27 9 54 9q45 0 88 -17.5t85 -36.5q12 -6 24 -10.5t23 -4.5q16 0 27 12.5t15 45.5l122 -22q0 -73 -40 -110t-102 -37q-32 0 -67 10t-71 30q-42 21 -64.5 31.5t-36.5 10.5q-8 0 -15 -3q-13 -7 -16 -26t-5 -45z" />
    <glyph glyph-name="notequal" unicode="&#x2260;" horiz-adv-x="674" 
d="M575 699l-119 -267h188v-105h-234l-28 -63h262v-105h-309l-70 -158h-148l70 158h-159v105h206l28 63h-234v105h281l119 267h147z" />
    <glyph glyph-name="lessequal" unicode="&#x2264;" horiz-adv-x="637" 
d="M609 679v-134l-393 -132l393 -132v-134l-581 209v113zM189 112l421 -23l-161 -89l-421 23z" />
    <glyph glyph-name="greaterequal" unicode="&#x2265;" horiz-adv-x="637" 
d="M28 678l581 -209v-113l-581 -209v134l393 132l-393 132v133zM609 111v-112h-581v112h581z" />
    <glyph glyph-name="lozenge" unicode="&#x25ca;" 
 />
    <glyph glyph-name="uniFB01" unicode="&#xfb01;" horiz-adv-x="690" 
d="M119 607q0 61 44 93t119 32q76 0 120 -32.5t42 -92.5l-101 -17q0 30 -11.5 40t-35.5 9q-17 -1 -24 -9t-7 -21v-108h134v-98h-134v-402h-144v402h-94v75l94 17zM660 732v-130h-167v130h167zM649 500v-500h-144v500h144z" />
    <glyph glyph-name="uniFB02" unicode="&#xfb02;" horiz-adv-x="654" 
d="M119 607q0 61 44 93t119 32q76 0 120 -32.5t42 -92.5l-101 -17q0 30 -11.5 40t-35.5 9q-17 -1 -24 -9t-7 -21v-108h134v-98h-134v-402h-144v402h-94v75l94 17zM636 732v-732h-144v732h144z" />
    </font>
</defs>
</svg>
